<svg width="469" height="375" viewBox="0 0 469 375" fill="none" xmlns="http://www.w3.org/2000/svg">
<path d="M434.71 160.574H400.13V202.574H391.23V178.794H347.25V216.444H341.43V128.084H303.21V152.344H283.62V182.514H277.69V163.534H242.94V220.174H232.78V174.124H201V139.164H179.39V119.254H154.4V207.574H146V170.714H104.82V223.474H99.1297V180.414H57.3697V141.614H33.9697V322.314H434.71V160.574Z" fill="#EBEBEB"/>
<path d="M424.62 173.884H430.47V165.854H424.62V173.884Z" fill="#AACCCC" fill-opacity="0.933333"/>
<path d="M414.48 173.884H420.33V165.854H414.48V173.884Z" fill="#AACCCC" fill-opacity="0.933333"/>
<path d="M404.33 173.884H410.18V165.854H404.33V173.884Z" fill="#AACCCC" fill-opacity="0.933333"/>
<path d="M424.62 185.964H430.47V177.934H424.62V185.964Z" fill="#AACCCC" fill-opacity="0.933333"/>
<path d="M414.48 185.964H420.33V177.934H414.48V185.964Z" fill="#AACCCC" fill-opacity="0.933333"/>
<path d="M404.33 185.964H410.18V177.934H404.33V185.964Z" fill="#AACCCC" fill-opacity="0.933333"/>
<path d="M424.62 198.044H430.47V190.014H424.62V198.044Z" fill="#AACCCC" fill-opacity="0.933333"/>
<path d="M414.48 198.044H420.33V190.014H414.48V198.044Z" fill="#AACCCC" fill-opacity="0.933333"/>
<path d="M404.33 198.044H410.18V190.014H404.33V198.044Z" fill="#AACCCC" fill-opacity="0.933333"/>
<path d="M424.62 210.134H430.47V202.104H424.62V210.134Z" fill="#AACCCC" fill-opacity="0.933333"/>
<path d="M414.48 210.134H420.33V202.104H414.48V210.134Z" fill="#AACCCC" fill-opacity="0.933333"/>
<path d="M404.33 210.134H410.18V202.104H404.33V210.134Z" fill="#AACCCC" fill-opacity="0.933333"/>
<path d="M222.05 186.574H227.9V179.874H222.05V186.574Z" fill="#AACCCC" fill-opacity="0.933333"/>
<path d="M211.91 186.574H217.76V179.874H211.91V186.574Z" fill="#AACCCC" fill-opacity="0.933333"/>
<path d="M201.76 186.574H207.61V179.874H201.76V186.574Z" fill="#AACCCC" fill-opacity="0.933333"/>
<path d="M222.05 196.644H227.9V189.944H222.05V196.644Z" fill="#AACCCC" fill-opacity="0.933333"/>
<path d="M211.91 196.644H217.76V189.944H211.91V196.644Z" fill="#AACCCC" fill-opacity="0.933333"/>
<path d="M201.76 196.644H207.61V189.944H201.76V196.644Z" fill="#AACCCC" fill-opacity="0.933333"/>
<path d="M222.05 206.724H227.9V200.024H222.05V206.724Z" fill="#AACCCC" fill-opacity="0.933333"/>
<path d="M211.91 206.724H217.76V200.024H211.91V206.724Z" fill="#AACCCC" fill-opacity="0.933333"/>
<path d="M201.76 206.724H207.61V200.024H201.76V206.724Z" fill="#AACCCC" fill-opacity="0.933333"/>
<path d="M222.05 216.804H227.9V210.104H222.05V216.804Z" fill="#AACCCC" fill-opacity="0.933333"/>
<path d="M211.91 216.804H217.76V210.104H211.91V216.804Z" fill="#AACCCC" fill-opacity="0.933333"/>
<path d="M201.76 216.804H207.61V210.104H201.76V216.804Z" fill="#AACCCC" fill-opacity="0.933333"/>
<path d="M222.05 227.134H227.9V220.434H222.05V227.134Z" fill="#AACCCC" fill-opacity="0.933333"/>
<path d="M211.91 227.134H217.76V220.434H211.91V227.134Z" fill="#AACCCC" fill-opacity="0.933333"/>
<path d="M201.76 227.134H207.61V220.434H201.76V227.134Z" fill="#AACCCC" fill-opacity="0.933333"/>
<path d="M222.05 237.464H227.9V230.764H222.05V237.464Z" fill="#AACCCC" fill-opacity="0.933333"/>
<path d="M211.91 237.464H217.76V230.764H211.91V237.464Z" fill="#AACCCC" fill-opacity="0.933333"/>
<path d="M201.76 237.464H207.61V230.764H201.76V237.464Z" fill="#AACCCC" fill-opacity="0.933333"/>
<path d="M222.05 247.784H227.9V241.084H222.05V247.784Z" fill="#AACCCC" fill-opacity="0.933333"/>
<path d="M211.91 247.784H217.76V241.084H211.91V247.784Z" fill="#AACCCC" fill-opacity="0.933333"/>
<path d="M201.76 247.784H207.61V241.084H201.76V247.784Z" fill="#AACCCC" fill-opacity="0.933333"/>
<path d="M222.05 258.114H227.9V251.414H222.05V258.114Z" fill="#AACCCC" fill-opacity="0.933333"/>
<path d="M211.91 258.114H217.76V251.414H211.91V258.114Z" fill="#AACCCC" fill-opacity="0.933333"/>
<path d="M201.76 258.114H207.61V251.414H201.76V258.114Z" fill="#AACCCC" fill-opacity="0.933333"/>
<path d="M352.55 188.964H386.23V183.944H352.55V188.964Z" fill="#AACCCC" fill-opacity="0.933333"/>
<path d="M352.55 198.714H386.23V193.694H352.55V198.714Z" fill="#AACCCC" fill-opacity="0.933333"/>
<path d="M352.55 208.454H386.23V203.434H352.55V208.454Z" fill="#AACCCC" fill-opacity="0.933333"/>
<path d="M352.55 218.194H386.23V213.174H352.55V218.194Z" fill="#AACCCC" fill-opacity="0.933333"/>
<path d="M352.55 227.944H386.23V222.924H352.55V227.944Z" fill="#AACCCC" fill-opacity="0.933333"/>
<path d="M352.55 237.684H386.23V232.664H352.55V237.684Z" fill="#AACCCC" fill-opacity="0.933333"/>
<path d="M352.55 247.434H386.23V242.414H352.55V247.434Z" fill="#AACCCC" fill-opacity="0.933333"/>
<path d="M352.55 257.164H386.23V252.144H352.55V257.164Z" fill="#AACCCC" fill-opacity="0.933333"/>
<path d="M110.04 180.414H141.01V175.394H110.04V180.414Z" fill="#AACCCC" fill-opacity="0.933333"/>
<path d="M110.04 190.164H141.01V185.144H110.04V190.164Z" fill="#AACCCC" fill-opacity="0.933333"/>
<path d="M110.04 199.914H141.01V194.894H110.04V199.914Z" fill="#AACCCC" fill-opacity="0.933333"/>
<path d="M110.04 209.654H141.01V204.634H110.04V209.654Z" fill="#AACCCC" fill-opacity="0.933333"/>
<path d="M110.04 219.394H141.01V214.374H110.04V219.394Z" fill="#AACCCC" fill-opacity="0.933333"/>
<path d="M110.04 229.144H141.01V224.124H110.04V229.144Z" fill="#AACCCC" fill-opacity="0.933333"/>
<path d="M110.04 238.884H141.01V233.864H110.04V238.884Z" fill="#AACCCC" fill-opacity="0.933333"/>
<path d="M110.04 248.634H141.01V243.614H110.04V248.634Z" fill="#AACCCC" fill-opacity="0.933333"/>
<path d="M110.04 257.884H141.01V252.864H110.04V257.884Z" fill="#AACCCC" fill-opacity="0.933333"/>
<path d="M110.04 267.144H141.01V262.124H110.04V267.144Z" fill="#AACCCC" fill-opacity="0.933333"/>
<path d="M110.04 276.404H141.01V271.384H110.04V276.404Z" fill="#AACCCC" fill-opacity="0.933333"/>
<path d="M110.04 285.654H141.01V280.634H110.04V285.654Z" fill="#AACCCC" fill-opacity="0.933333"/>
<path d="M110.04 294.914H141.01V289.894H110.04V294.914Z" fill="#AACCCC" fill-opacity="0.933333"/>
<path d="M59.9797 192.184H92.6897V187.164H59.9797V192.184Z" fill="#AACCCC" fill-opacity="0.933333"/>
<path d="M59.9797 201.934H92.6897V196.914H59.9797V201.934Z" fill="#AACCCC" fill-opacity="0.933333"/>
<path d="M59.9797 211.684H92.6897V206.664H59.9797V211.684Z" fill="#AACCCC" fill-opacity="0.933333"/>
<path d="M59.9797 221.424H92.6897V216.404H59.9797V221.424Z" fill="#AACCCC" fill-opacity="0.933333"/>
<path d="M59.9797 231.164H92.6897V226.144H59.9797V231.164Z" fill="#AACCCC" fill-opacity="0.933333"/>
<path d="M59.9797 240.914H92.6897V235.894H59.9797V240.914Z" fill="#AACCCC" fill-opacity="0.933333"/>
<path d="M59.9797 250.654H92.6897V245.634H59.9797V250.654Z" fill="#AACCCC" fill-opacity="0.933333"/>
<path d="M59.9797 260.404H92.6897V255.384H59.9797V260.404Z" fill="#AACCCC" fill-opacity="0.933333"/>
<path d="M59.9797 269.124H92.6897V264.104H59.9797V269.124Z" fill="#AACCCC" fill-opacity="0.933333"/>
<path d="M59.9797 277.844H92.6897V272.824H59.9797V277.844Z" fill="#AACCCC" fill-opacity="0.933333"/>
<path d="M59.9797 286.564H92.6897V281.544H59.9797V286.564Z" fill="#AACCCC" fill-opacity="0.933333"/>
<path d="M257.12 172.934H267.52V168.084H257.12V172.934Z" fill="#AACCCC" fill-opacity="0.933333"/>
<path d="M257.12 182.344H267.52V177.494H257.12V182.344Z" fill="#AACCCC" fill-opacity="0.933333"/>
<path d="M257.12 191.754H267.52V186.904H257.12V191.754Z" fill="#AACCCC" fill-opacity="0.933333"/>
<path d="M257.12 201.164H267.52V196.314H257.12V201.164Z" fill="#AACCCC" fill-opacity="0.933333"/>
<path d="M257.12 210.574H267.52V205.724H257.12V210.574Z" fill="#AACCCC" fill-opacity="0.933333"/>
<path d="M257.12 219.984H267.52V215.134H257.12V219.984Z" fill="#AACCCC" fill-opacity="0.933333"/>
<path d="M257.12 229.394H267.52V224.544H257.12V229.394Z" fill="#AACCCC" fill-opacity="0.933333"/>
<path d="M257.12 238.804H267.52V233.954H257.12V238.804Z" fill="#AACCCC" fill-opacity="0.933333"/>
<path d="M242.97 172.934H253.37V168.084H242.97V172.934Z" fill="#AACCCC" fill-opacity="0.933333"/>
<path d="M242.97 182.344H253.37V177.494H242.97V182.344Z" fill="#AACCCC" fill-opacity="0.933333"/>
<path d="M242.97 191.754H253.37V186.904H242.97V191.754Z" fill="#AACCCC" fill-opacity="0.933333"/>
<path d="M242.97 201.164H253.37V196.314H242.97V201.164Z" fill="#AACCCC" fill-opacity="0.933333"/>
<path d="M242.97 210.574H253.37V205.724H242.97V210.574Z" fill="#AACCCC" fill-opacity="0.933333"/>
<path d="M242.97 219.984H253.37V215.134H242.97V219.984Z" fill="#AACCCC" fill-opacity="0.933333"/>
<path d="M242.97 229.394H253.37V224.544H242.97V229.394Z" fill="#AACCCC" fill-opacity="0.933333"/>
<path d="M242.97 238.804H253.37V233.954H242.97V238.804Z" fill="#AACCCC" fill-opacity="0.933333"/>
<path d="M324.79 140.824H335.63V133.174H324.79V140.824Z" fill="#AACCCC" fill-opacity="0.933333"/>
<path d="M308.64 140.824H319.48V133.174H308.64V140.824Z" fill="#AACCCC" fill-opacity="0.933333"/>
<path d="M324.79 152.054H335.63V144.404H324.79V152.054Z" fill="#AACCCC" fill-opacity="0.933333"/>
<path d="M308.64 152.054H319.48V144.404H308.64V152.054Z" fill="#AACCCC" fill-opacity="0.933333"/>
<path d="M324.79 163.294H335.63V155.644H324.79V163.294Z" fill="#AACCCC" fill-opacity="0.933333"/>
<path d="M308.64 163.294H319.48V155.644H308.64V163.294Z" fill="#AACCCC" fill-opacity="0.933333"/>
<path d="M324.79 174.524H335.63V166.874H324.79V174.524Z" fill="#AACCCC" fill-opacity="0.933333"/>
<path d="M308.64 174.524H319.48V166.874H308.64V174.524Z" fill="#AACCCC" fill-opacity="0.933333"/>
<path d="M324.79 185.764H335.63V178.114H324.79V185.764Z" fill="#AACCCC" fill-opacity="0.933333"/>
<path d="M308.64 185.764H319.48V178.114H308.64V185.764Z" fill="#AACCCC" fill-opacity="0.933333"/>
<path d="M324.79 197.004H335.63V189.354H324.79V197.004Z" fill="#AACCCC" fill-opacity="0.933333"/>
<path d="M308.64 197.004H319.48V189.354H308.64V197.004Z" fill="#AACCCC" fill-opacity="0.933333"/>
<path d="M324.79 208.234H335.63V200.584H324.79V208.234Z" fill="#AACCCC" fill-opacity="0.933333"/>
<path d="M308.64 208.234H319.48V200.584H308.64V208.234Z" fill="#AACCCC" fill-opacity="0.933333"/>
<path d="M324.79 219.474H335.63V211.824H324.79V219.474Z" fill="#AACCCC" fill-opacity="0.933333"/>
<path d="M308.64 219.474H319.48V211.824H308.64V219.474Z" fill="#AACCCC" fill-opacity="0.933333"/>
<path d="M288.61 163.294H299.45V155.644H288.61V163.294Z" fill="#AACCCC" fill-opacity="0.933333"/>
<path d="M288.61 174.524H299.45V166.874H288.61V174.524Z" fill="#AACCCC" fill-opacity="0.933333"/>
<path d="M288.61 185.764H299.45V178.114H288.61V185.764Z" fill="#AACCCC" fill-opacity="0.933333"/>
<path d="M288.61 197.004H299.45V189.354H288.61V197.004Z" fill="#AACCCC" fill-opacity="0.933333"/>
<path d="M288.61 208.234H299.45V200.584H288.61V208.234Z" fill="#AACCCC" fill-opacity="0.933333"/>
<path d="M288.61 219.474H299.45V211.824H288.61V219.474Z" fill="#AACCCC" fill-opacity="0.933333"/>
<path d="M324.79 230.574H335.63V222.924H324.79V230.574Z" fill="#AACCCC" fill-opacity="0.933333"/>
<path d="M308.64 230.574H319.48V222.924H308.64V230.574Z" fill="#AACCCC" fill-opacity="0.933333"/>
<path d="M288.61 230.574H299.45V222.924H288.61V230.574Z" fill="#AACCCC" fill-opacity="0.933333"/>
<path d="M324.79 241.664H335.63V234.014H324.79V241.664Z" fill="#AACCCC" fill-opacity="0.933333"/>
<path d="M308.64 241.664H319.48V234.014H308.64V241.664Z" fill="#AACCCC" fill-opacity="0.933333"/>
<path d="M288.61 241.664H299.45V234.014H288.61V241.664Z" fill="#AACCCC" fill-opacity="0.933333"/>
<path d="M324.79 252.764H335.63V245.114H324.79V252.764Z" fill="#AACCCC" fill-opacity="0.933333"/>
<path d="M308.64 252.764H319.48V245.114H308.64V252.764Z" fill="#AACCCC" fill-opacity="0.933333"/>
<path d="M288.61 252.764H299.45V245.114H288.61V252.764Z" fill="#AACCCC" fill-opacity="0.933333"/>
<path d="M324.79 263.864H335.63V256.214H324.79V263.864Z" fill="#AACCCC" fill-opacity="0.933333"/>
<path d="M308.64 263.864H319.48V256.214H308.64V263.864Z" fill="#AACCCC" fill-opacity="0.933333"/>
<path d="M288.61 263.864H299.45V256.214H288.61V263.864Z" fill="#AACCCC" fill-opacity="0.933333"/>
<path d="M324.79 274.964H335.63V267.314H324.79V274.964Z" fill="#AACCCC" fill-opacity="0.933333"/>
<path d="M308.64 274.964H319.48V267.314H308.64V274.964Z" fill="#AACCCC" fill-opacity="0.933333"/>
<path d="M288.61 274.964H299.45V267.314H288.61V274.964Z" fill="#AACCCC" fill-opacity="0.933333"/>
<path d="M190.74 150.784H196.59V144.084H190.74V150.784Z" fill="#AACCCC" fill-opacity="0.933333"/>
<path d="M180.6 150.784H186.45V144.084H180.6V150.784Z" fill="#AACCCC" fill-opacity="0.933333"/>
<path d="M190.74 160.864H196.59V154.164H190.74V160.864Z" fill="#AACCCC" fill-opacity="0.933333"/>
<path d="M180.6 160.864H186.45V154.164H180.6V160.864Z" fill="#AACCCC" fill-opacity="0.933333"/>
<path d="M190.74 170.944H196.59V164.244H190.74V170.944Z" fill="#AACCCC" fill-opacity="0.933333"/>
<path d="M180.6 170.944H186.45V164.244H180.6V170.944Z" fill="#AACCCC" fill-opacity="0.933333"/>
<path d="M190.74 181.034H196.59V174.334H190.74V181.034Z" fill="#AACCCC" fill-opacity="0.933333"/>
<path d="M180.6 181.034H186.45V174.334H180.6V181.034Z" fill="#AACCCC" fill-opacity="0.933333"/>
<path d="M190.74 191.364H196.59V184.664H190.74V191.364Z" fill="#AACCCC" fill-opacity="0.933333"/>
<path d="M180.6 191.364H186.45V184.664H180.6V191.364Z" fill="#AACCCC" fill-opacity="0.933333"/>
<path d="M190.74 201.684H196.59V194.984H190.74V201.684Z" fill="#AACCCC" fill-opacity="0.933333"/>
<path d="M180.6 201.684H186.45V194.984H180.6V201.684Z" fill="#AACCCC" fill-opacity="0.933333"/>
<path d="M190.74 212.014H196.59V205.314H190.74V212.014Z" fill="#AACCCC" fill-opacity="0.933333"/>
<path d="M180.6 212.014H186.45V205.314H180.6V212.014Z" fill="#AACCCC" fill-opacity="0.933333"/>
<path d="M190.74 222.344H196.59V215.644H190.74V222.344Z" fill="#AACCCC" fill-opacity="0.933333"/>
<path d="M180.6 222.344H186.45V215.644H180.6V222.344Z" fill="#AACCCC" fill-opacity="0.933333"/>
<path d="M190.74 232.784H196.59V226.084H190.74V232.784Z" fill="#AACCCC" fill-opacity="0.933333"/>
<path d="M180.6 232.784H186.45V226.084H180.6V232.784Z" fill="#AACCCC" fill-opacity="0.933333"/>
<path d="M190.74 243.214H196.59V236.514H190.74V243.214Z" fill="#AACCCC" fill-opacity="0.933333"/>
<path d="M180.6 243.214H186.45V236.514H180.6V243.214Z" fill="#AACCCC" fill-opacity="0.933333"/>
<path d="M190.74 253.654H196.59V246.954H190.74V253.654Z" fill="#AACCCC" fill-opacity="0.933333"/>
<path d="M180.6 253.654H186.45V246.954H180.6V253.654Z" fill="#AACCCC" fill-opacity="0.933333"/>
<path d="M190.74 264.104H196.59V257.404H190.74V264.104Z" fill="#AACCCC" fill-opacity="0.933333"/>
<path d="M180.6 264.104H186.45V257.404H180.6V264.104Z" fill="#AACCCC" fill-opacity="0.933333"/>
<path d="M47.8497 153.064H53.6997V145.174H47.8497V153.064Z" fill="#AACCCC" fill-opacity="0.933333"/>
<path d="M37.7198 153.064H43.5698V145.174H37.7198V153.064Z" fill="#AACCCC" fill-opacity="0.933333"/>
<path d="M47.8497 164.944H53.6997V157.054H47.8497V164.944Z" fill="#AACCCC" fill-opacity="0.933333"/>
<path d="M37.7198 164.944H43.5698V157.054H37.7198V164.944Z" fill="#AACCCC" fill-opacity="0.933333"/>
<path d="M47.8497 176.814H53.6997V168.924H47.8497V176.814Z" fill="#AACCCC" fill-opacity="0.933333"/>
<path d="M37.7198 176.814H43.5698V168.924H37.7198V176.814Z" fill="#AACCCC" fill-opacity="0.933333"/>
<path d="M47.8497 188.694H53.6997V180.804H47.8497V188.694Z" fill="#AACCCC" fill-opacity="0.933333"/>
<path d="M37.7198 188.694H43.5698V180.804H37.7198V188.694Z" fill="#AACCCC" fill-opacity="0.933333"/>
<path d="M47.8497 200.864H53.6997V192.974H47.8497V200.864Z" fill="#AACCCC" fill-opacity="0.933333"/>
<path d="M37.7198 200.864H43.5698V192.974H37.7198V200.864Z" fill="#AACCCC" fill-opacity="0.933333"/>
<path d="M47.8497 213.034H53.6997V205.144H47.8497V213.034Z" fill="#AACCCC" fill-opacity="0.933333"/>
<path d="M37.7198 213.034H43.5698V205.144H37.7198V213.034Z" fill="#AACCCC" fill-opacity="0.933333"/>
<path d="M47.8497 225.194H53.6997V217.304H47.8497V225.194Z" fill="#AACCCC" fill-opacity="0.933333"/>
<path d="M37.7198 225.194H43.5698V217.304H37.7198V225.194Z" fill="#AACCCC" fill-opacity="0.933333"/>
<path d="M47.8497 237.374H53.6997V229.484H47.8497V237.374Z" fill="#AACCCC" fill-opacity="0.933333"/>
<path d="M37.7198 237.374H43.5698V229.484H37.7198V237.374Z" fill="#AACCCC" fill-opacity="0.933333"/>
<path d="M47.8497 249.674H53.6997V241.784H47.8497V249.674Z" fill="#AACCCC" fill-opacity="0.933333"/>
<path d="M37.7198 249.674H43.5698V241.784H37.7198V249.674Z" fill="#AACCCC" fill-opacity="0.933333"/>
<path d="M47.8497 261.964H53.6997V254.074H47.8497V261.964Z" fill="#AACCCC" fill-opacity="0.933333"/>
<path d="M37.7198 261.964H43.5698V254.074H37.7198V261.964Z" fill="#AACCCC" fill-opacity="0.933333"/>
<path d="M47.8497 274.264H53.6997V266.374H47.8497V274.264Z" fill="#AACCCC" fill-opacity="0.933333"/>
<path d="M37.7198 274.264H43.5698V266.374H37.7198V274.264Z" fill="#AACCCC" fill-opacity="0.933333"/>
<path d="M47.8497 286.564H53.6997V278.674H47.8497V286.564Z" fill="#AACCCC" fill-opacity="0.933333"/>
<path d="M37.7198 286.564H43.5698V278.674H37.7198V286.564Z" fill="#AACCCC" fill-opacity="0.933333"/>
<path d="M169.04 150.784H174.89V144.084H169.04V150.784Z" fill="#AACCCC" fill-opacity="0.933333"/>
<path d="M158.9 150.784H164.75V144.084H158.9V150.784Z" fill="#AACCCC" fill-opacity="0.933333"/>
<path d="M169.04 140.454H174.89V133.754H169.04V140.454Z" fill="#AACCCC" fill-opacity="0.933333"/>
<path d="M158.9 140.454H164.75V133.754H158.9V140.454Z" fill="#AACCCC" fill-opacity="0.933333"/>
<path d="M169.04 130.124H174.89V123.424H169.04V130.124Z" fill="#AACCCC" fill-opacity="0.933333"/>
<path d="M158.9 130.124H164.75V123.424H158.9V130.124Z" fill="#AACCCC" fill-opacity="0.933333"/>
<path d="M169.04 160.864H174.89V154.164H169.04V160.864Z" fill="#AACCCC" fill-opacity="0.933333"/>
<path d="M158.9 160.864H164.75V154.164H158.9V160.864Z" fill="#AACCCC" fill-opacity="0.933333"/>
<path d="M169.04 170.944H174.89V164.244H169.04V170.944Z" fill="#AACCCC" fill-opacity="0.933333"/>
<path d="M158.9 170.944H164.75V164.244H158.9V170.944Z" fill="#AACCCC" fill-opacity="0.933333"/>
<path d="M169.04 181.034H174.89V174.334H169.04V181.034Z" fill="#AACCCC" fill-opacity="0.933333"/>
<path d="M158.9 181.034H164.75V174.334H158.9V181.034Z" fill="#AACCCC" fill-opacity="0.933333"/>
<path d="M169.04 191.364H174.89V184.664H169.04V191.364Z" fill="#AACCCC" fill-opacity="0.933333"/>
<path d="M158.9 191.364H164.75V184.664H158.9V191.364Z" fill="#AACCCC" fill-opacity="0.933333"/>
<path d="M169.04 201.684H174.89V194.984H169.04V201.684Z" fill="#AACCCC" fill-opacity="0.933333"/>
<path d="M158.9 201.684H164.75V194.984H158.9V201.684Z" fill="#AACCCC" fill-opacity="0.933333"/>
<path d="M169.04 212.014H174.89V205.314H169.04V212.014Z" fill="#AACCCC" fill-opacity="0.933333"/>
<path d="M158.9 212.014H164.75V205.314H158.9V212.014Z" fill="#AACCCC" fill-opacity="0.933333"/>
<path d="M169.04 222.344H174.89V215.644H169.04V222.344Z" fill="#AACCCC" fill-opacity="0.933333"/>
<path d="M158.9 222.344H164.75V215.644H158.9V222.344Z" fill="#AACCCC" fill-opacity="0.933333"/>
<path d="M169.04 232.784H174.89V226.084H169.04V232.784Z" fill="#AACCCC" fill-opacity="0.933333"/>
<path d="M158.9 232.784H164.75V226.084H158.9V232.784Z" fill="#AACCCC" fill-opacity="0.933333"/>
<path d="M169.04 243.214H174.89V236.514H169.04V243.214Z" fill="#AACCCC" fill-opacity="0.933333"/>
<path d="M158.9 243.214H164.75V236.514H158.9V243.214Z" fill="#AACCCC" fill-opacity="0.933333"/>
<path d="M169.04 253.654H174.89V246.954H169.04V253.654Z" fill="#AACCCC" fill-opacity="0.933333"/>
<path d="M158.9 253.654H164.75V246.954H158.9V253.654Z" fill="#AACCCC" fill-opacity="0.933333"/>
<path d="M169.04 264.104H174.89V257.404H169.04V264.104Z" fill="#AACCCC" fill-opacity="0.933333"/>
<path d="M158.9 264.104H164.75V257.404H158.9V264.104Z" fill="#AACCCC" fill-opacity="0.933333"/>
<path d="M430.45 104.854H322.78C322.78 104.854 333.46 75.6938 349.89 75.6938C366.32 75.6938 371.46 95.8239 371.46 95.8239C371.46 95.8239 382.55 84.8839 391.66 84.8839C400.77 84.8839 408.66 99.3338 408.66 99.3338C408.66 99.3338 421.55 91.5639 430.45 104.854Z" fill="#EBEBEB"/>
<path d="M370.19 47.1838H319.87C319.87 47.1838 331.11 30.8938 339.97 30.8938C348.83 30.8938 351.45 41.7538 351.45 41.7538C351.45 41.7538 357.7 36.6838 363.45 37.5938C369.2 38.5038 370.19 47.1838 370.19 47.1838Z" fill="#EBEBEB"/>
<path d="M136.24 96.1736H38.2397C38.2397 96.1736 51.6597 66.1736 66.0197 64.3336C80.3797 62.4936 87.2397 86.5936 87.2397 86.5936C87.2397 86.5936 96.4997 78.0636 103.78 78.0636C111.06 78.0636 116.69 89.3036 116.69 89.3036C116.69 89.3036 131.24 81.6036 136.24 96.1736Z" fill="#EBEBEB"/>
<path d="M229.39 22.0037H163.18C163.18 22.0037 174.55 0.293729 186.89 0.00372928C199.23 -0.286271 205.71 16.4337 205.71 16.4337C205.71 16.4337 224.9 1.00373 229.39 22.0037Z" fill="#EBEBEB"/>
<path d="M274.6 374.284C364.644 374.284 437.64 369.453 437.64 363.494C437.64 357.534 364.644 352.704 274.6 352.704C184.555 352.704 111.56 357.534 111.56 363.494C111.56 369.453 184.555 374.284 274.6 374.284Z" fill="#EBEBEB"/>
<path d="M468.68 322.314L410.09 322.554L351.51 322.644L234.34 322.804L117.17 322.644L58.59 322.554L0 322.314L58.59 322.064L117.17 321.974L234.34 321.814L351.51 321.974L410.09 322.064L468.68 322.314Z" fill="#263238"/>
<path d="M227.03 167.644C243.95 185.244 294.78 263.574 298.74 265.914C298.74 265.914 298.74 317.144 270.43 306.914C242.12 296.684 216.17 204.774 210.63 175.474C207.71 160.004 213.21 153.284 227.03 167.644Z" fill="#D3766A"/>
<path d="M222.72 228.204L274.6 222.304C274.6 222.304 242.42 179.614 225.79 164.374C208.45 148.494 199.95 150.724 207.99 180.804C216.07 211.064 222.72 228.204 222.72 228.204Z" fill="#4CC1FF"/>
<path d="M220.28 199.944C219.71 201.375 219.346 202.88 219.2 204.414C221.01 201.913 222.137 198.983 222.47 195.914C221.544 197.141 220.806 198.499 220.28 199.944ZM249.42 201.114C247.992 200.543 246.49 200.179 244.96 200.034C247.456 201.846 250.383 202.973 253.45 203.304C252.224 202.376 250.865 201.638 249.42 201.114ZM241.69 221.294C241.079 219.883 240.271 218.567 239.29 217.384C239.519 218.902 239.964 220.38 240.61 221.774C241.201 223.193 242.003 224.515 242.99 225.694C242.766 224.173 242.328 222.692 241.69 221.294ZM211.25 156.294C210.99 155.744 210.73 155.204 210.43 154.664C210.074 154.629 209.716 154.629 209.36 154.664C209.6 155.394 209.87 156.094 210.17 156.794C210.771 158.21 211.576 159.531 212.56 160.714C212.335 159.186 211.894 157.698 211.25 156.294ZM271.04 217.634L270.04 218.034C268.625 218.643 267.302 219.447 266.11 220.424C267.634 220.198 269.119 219.757 270.52 219.114C270.92 218.934 271.31 218.744 271.7 218.534L271.04 217.634ZM231.04 176.424C229.628 177.029 228.308 177.831 227.12 178.804C228.645 178.585 230.13 178.147 231.53 177.504C232.943 176.897 234.263 176.092 235.45 175.114C233.918 175.334 232.425 175.775 231.02 176.424H231.04ZM227.56 176.514C227.501 176.554 227.444 176.597 227.39 176.644H227.57C227.57 176.644 227.54 176.544 227.54 176.514H227.56Z" fill="white"/>
<path d="M225.21 218.874C226.42 218.594 227.69 218.484 228.92 218.314L232.74 217.784C235.31 217.424 237.89 217.104 240.47 216.784C245.63 216.184 250.79 215.554 255.96 215.044C257.38 214.904 258.81 214.764 260.23 214.654C261.65 214.544 263.23 214.544 264.73 214.434C264.82 214.434 264.82 214.564 264.73 214.574C263.46 214.764 262.2 215.054 260.93 215.254C259.66 215.454 258.31 215.634 257 215.794C254.43 216.124 251.84 216.424 249.26 216.714C244.18 217.264 239.09 217.844 233.99 218.294L229.73 218.654C228.24 218.784 226.73 219.004 225.23 218.994C225.218 218.989 225.208 218.982 225.2 218.973C225.192 218.963 225.187 218.952 225.185 218.939C225.183 218.927 225.184 218.915 225.189 218.903C225.193 218.892 225.2 218.881 225.21 218.874Z" fill="#263238"/>
<path opacity="0.1" d="M247.89 225.344L222.73 228.204C222.73 228.204 216.08 211.064 207.99 180.804C204.58 168.044 204.15 160.294 206.11 156.804L247.89 225.344Z" fill="black"/>
<path d="M237.11 334.904H158.2C157.55 332.364 156.92 329.904 156.29 327.404C155.57 324.574 154.86 321.814 154.18 319.124C154.03 318.524 153.87 317.924 153.72 317.334C153.2 315.274 152.69 313.274 152.19 311.334C151.89 310.144 151.59 308.974 151.3 307.814C151.01 306.654 150.7 305.474 150.41 304.344C150.33 304.044 150.26 303.744 150.18 303.454L149.94 302.454L149.64 301.284C149.53 300.874 149.43 300.474 149.33 300.074C149.13 299.314 148.94 298.564 148.76 297.834C148.48 296.754 148.21 295.694 147.95 294.664C147.84 294.214 147.72 293.764 147.61 293.324C147.42 292.604 147.24 291.904 147.07 291.214C146.95 290.754 146.84 290.304 146.73 289.864C146.263 288.05 145.83 286.35 145.43 284.764C145.32 284.344 145.22 283.934 145.11 283.534C144.94 282.844 144.77 282.184 144.61 281.534C144.497 281.134 144.397 280.744 144.31 280.364C143.96 279.004 143.64 277.764 143.37 276.674C143.29 276.384 143.22 276.104 143.15 275.834C142.97 275.114 142.8 274.474 142.66 273.904C142.6 273.674 142.55 273.454 142.49 273.254L142.33 272.624C142.33 272.484 142.26 272.344 142.23 272.224L142.09 271.684C142.09 271.597 142.07 271.517 142.03 271.444L141.85 270.734H218.66C218.66 270.734 221.19 279.454 225.24 293.514C226.06 296.374 226.95 299.514 227.9 302.744C230.59 312.124 233.73 323.064 237.11 334.904Z" fill="#37474F"/>
<path d="M171.12 334.904H169.12C166.2 322.817 163.37 310.707 160.63 298.574C159.963 295.62 159.296 292.667 158.63 289.714L158.45 288.884C158.446 288.855 158.454 288.826 158.47 288.802C158.486 288.778 158.511 288.761 158.539 288.754C158.567 288.746 158.596 288.749 158.622 288.762C158.648 288.775 158.669 288.797 158.68 288.824C158.68 288.914 158.73 289.004 158.76 289.094C159.646 292.267 160.53 295.444 161.41 298.624C164.79 310.684 168.026 322.777 171.12 334.904Z" fill="#263238"/>
<path d="M216.17 270.744L212.78 287.744L210 301.664L205.27 325.384L204.78 327.814L203.97 331.864L203.34 334.904H158.19C157.55 332.354 156.91 329.904 156.29 327.404C155.57 324.574 154.86 321.814 154.18 319.124C154.03 318.524 153.87 317.924 153.72 317.334C153.2 315.274 152.69 313.274 152.19 311.334C151.89 310.144 151.59 308.974 151.3 307.814C151.01 306.654 150.7 305.474 150.41 304.344C150.33 304.044 150.26 303.744 150.18 303.454L149.94 302.454L149.64 301.284C149.53 300.874 149.43 300.474 149.33 300.074C149.13 299.314 148.94 298.564 148.76 297.834C148.48 296.754 148.21 295.694 147.95 294.664C147.83 294.204 147.72 293.764 147.61 293.324C147.42 292.604 147.24 291.904 147.07 291.214C146.95 290.754 146.84 290.304 146.73 289.864C146.263 288.05 145.83 286.35 145.43 284.764C145.32 284.344 145.22 283.934 145.11 283.534C144.94 282.844 144.77 282.184 144.61 281.534C144.497 281.134 144.397 280.744 144.31 280.364C143.96 279.004 143.64 277.764 143.37 276.674C143.29 276.384 143.22 276.104 143.15 275.834C142.97 275.114 142.8 274.474 142.66 273.904C142.6 273.674 142.55 273.454 142.49 273.254L142.33 272.624C142.33 272.484 142.26 272.344 142.23 272.224L142.09 271.684C142.09 271.597 142.07 271.517 142.03 271.444L141.85 270.734L216.17 270.744Z" fill="#263238"/>
<path d="M216.18 270.714C216.18 271.134 215.86 275.714 215.12 282.714C214.91 284.714 214.66 286.994 214.37 289.394C213.92 293.184 213.37 297.394 212.67 301.784C211.49 309.494 209.95 317.904 207.95 326.124C207.24 329.124 206.46 332.014 205.63 334.884H106.48C107.65 319.774 108.72 306.104 109.57 295.334C110.76 280.174 111.57 270.684 111.57 270.684H201.51L216.18 270.714Z" fill="#37474F"/>
<path d="M215.97 279.824C215.86 283.374 215.71 286.914 215.48 290.444C215.24 294.274 214.89 298.094 214.39 301.914C214.39 302.054 214.39 302.194 214.34 302.334C213.873 305.914 213.337 309.484 212.73 313.044C212.16 316.364 211.73 319.944 210.27 323.044C209.715 324.232 208.926 325.297 207.95 326.174C207.057 326.991 205.963 327.557 204.78 327.814C204.586 327.862 204.389 327.896 204.19 327.914H204.02C204.056 327.935 204.086 327.965 204.106 328.003C204.125 328.04 204.134 328.082 204.13 328.124C204.13 329.314 204.13 330.524 203.99 331.704C203.99 331.754 203.99 331.804 203.99 331.854C203.87 332.854 203.68 333.904 203.49 334.924H201.79V334.864C202.09 333.744 202.34 332.614 202.62 331.484C202.9 330.354 203.3 329.204 203.57 328.034C203.585 327.99 203.613 327.951 203.65 327.924C202.571 327.975 201.502 327.696 200.586 327.122C199.671 326.548 198.953 325.707 198.53 324.714C198.103 323.193 198.076 321.588 198.45 320.054C198.76 318.054 199.06 315.994 199.37 313.964C199.95 310.234 200.7 306.544 201.37 302.834L201.67 301.144C203 293.594 204.39 286.044 206.06 278.564C206.12 278.254 206.19 277.944 206.26 277.634C206.33 277.324 206.64 277.484 206.62 277.684C206.57 278.184 206.52 278.684 206.46 279.194C206.167 282.067 205.833 284.927 205.46 287.774C204.98 291.124 204.65 294.494 204.18 297.844C204.02 298.984 203.86 300.124 203.69 301.264C202.92 306.774 202.12 312.264 201.18 317.774C200.74 320.324 199.18 324.894 202.82 325.684C203.661 325.87 204.54 325.761 205.31 325.374C206.931 324.397 208.142 322.866 208.72 321.064C209.62 318.062 210.272 314.992 210.67 311.884C211.27 308.55 211.803 305.187 212.27 301.794C212.87 297.587 213.497 293.384 214.15 289.184C214.477 287.044 214.81 284.904 215.15 282.764L215.63 279.764C215.64 279.554 215.97 279.614 215.97 279.824Z" fill="#263238"/>
<path d="M128.23 306.184C132.359 306.141 136.467 305.587 140.46 304.534C142.3 304.064 144.12 303.474 145.93 302.884C147.723 302.389 149.402 301.546 150.87 300.404C153.65 298.004 154.94 294.234 156.15 290.874C157.463 287.09 158.529 283.225 159.34 279.304C159.34 279.114 159.66 279.184 159.67 279.364C159.766 283.799 159.203 288.224 158 292.494C157 296.124 155.66 300.164 152.73 302.704C149.8 305.244 145.47 306.324 141.52 306.804C137.091 307.319 132.614 307.258 128.2 306.624C128.142 306.62 128.087 306.593 128.049 306.549C128.01 306.505 127.991 306.447 127.995 306.389C127.999 306.33 128.026 306.276 128.07 306.237C128.114 306.199 128.172 306.18 128.23 306.184Z" fill="#263238"/>
<path d="M121.34 279.424C121.12 284.97 120.887 290.524 120.64 296.084C120.073 309.024 119.45 321.964 118.77 334.904H116.91C117.763 321.937 118.66 308.977 119.6 296.024C120.007 290.484 120.427 284.947 120.86 279.414C120.861 279.35 120.888 279.29 120.934 279.246C120.98 279.201 121.041 279.177 121.105 279.179C121.169 279.18 121.229 279.207 121.273 279.253C121.317 279.299 121.341 279.36 121.34 279.424Z" fill="#263238"/>
<path d="M233.25 311.784L98.7397 301.584C98.7397 301.584 125.8 194.334 179.23 154.904C192.89 144.834 207.84 151.294 214.57 158.824C231.67 178.004 233.65 311.354 233.25 311.784Z" fill="#4CC1FF"/>
<path d="M185.45 159.784C184.885 161.213 184.522 162.714 184.37 164.244C185.291 163.022 186.031 161.675 186.57 160.244C187.134 158.814 187.498 157.313 187.65 155.784C186.733 157.007 185.992 158.354 185.45 159.784ZM170.85 217.644C170.275 219.073 169.914 220.579 169.78 222.114C171.581 219.609 172.704 216.681 173.04 213.614C172.122 214.846 171.384 216.203 170.85 217.644ZM122.79 242.454C122.221 243.885 121.857 245.39 121.71 246.924C123.52 244.423 124.647 241.493 124.98 238.424C124.069 239.661 123.333 241.017 122.79 242.454ZM161.58 279.004C160.999 280.428 160.635 281.931 160.5 283.464C162.301 280.959 163.424 278.031 163.76 274.964C162.843 276.199 162.109 277.559 161.58 279.004ZM220.28 199.924C219.71 201.355 219.346 202.86 219.2 204.394C221.01 201.893 222.137 198.963 222.47 195.894C221.543 197.127 220.804 198.492 220.28 199.944V199.924ZM196.34 272.674C195.758 274.098 195.391 275.601 195.25 277.134C196.169 275.913 196.907 274.566 197.44 273.134C198.009 271.706 198.372 270.204 198.52 268.674C197.604 269.895 196.869 271.242 196.34 272.674ZM147.87 197.204C147.3 198.631 146.936 200.133 146.79 201.664C148.602 199.165 149.727 196.234 150.05 193.164C149.129 194.396 148.394 195.757 147.87 197.204ZM201.61 178.004C200.184 177.428 198.681 177.064 197.15 176.924C198.372 177.837 199.719 178.572 201.15 179.104C202.578 179.682 204.085 180.046 205.62 180.184C204.395 179.267 203.045 178.533 201.61 178.004ZM216.85 226.214C215.423 225.64 213.921 225.276 212.39 225.134C213.61 226.052 214.957 226.786 216.39 227.314C217.816 227.891 219.318 228.258 220.85 228.404C219.628 227.496 218.281 226.772 216.85 226.254V226.214ZM220.94 283.834C219.512 283.264 218.01 282.9 216.48 282.754C217.699 283.675 219.047 284.413 220.48 284.944C221.908 285.512 223.41 285.875 224.94 286.024C223.713 285.124 222.367 284.4 220.94 283.874V283.834ZM125.19 279.094C123.762 278.522 122.26 278.159 120.73 278.014C123.226 279.826 126.153 280.953 129.22 281.284C127.986 280.378 126.629 279.654 125.19 279.134V279.094ZM159.8 242.094C158.372 241.52 156.871 241.153 155.34 241.004C156.562 241.924 157.909 242.665 159.34 243.204C160.769 243.768 162.27 244.132 163.8 244.284C162.576 243.377 161.229 242.65 159.8 242.124V242.094ZM211.25 156.264C211.11 155.964 210.97 155.674 210.82 155.384C210.33 155.014 209.82 154.654 209.27 154.304C209.517 155.142 209.818 155.964 210.17 156.764C210.77 158.18 211.576 159.501 212.56 160.684C212.332 159.166 211.891 157.688 211.25 156.294V156.264ZM171.94 187.364C171.337 185.948 170.532 184.628 169.55 183.444C170.031 186.494 171.307 189.364 173.25 191.764C173.03 190.241 172.589 188.759 171.94 187.364ZM206.65 305.694C206.047 304.281 205.245 302.961 204.27 301.774C204.491 303.295 204.929 304.777 205.57 306.174C206.14 307.489 206.876 308.725 207.76 309.854H207.92C207.689 308.415 207.262 307.016 206.65 305.694ZM193.88 236.004C193.271 234.591 192.467 233.271 191.49 232.084C191.987 235.127 193.257 237.992 195.18 240.404C194.958 238.883 194.521 237.401 193.88 236.004ZM102.26 289.144C102.2 289.354 102.14 289.564 102.07 289.764C102.2 289.904 102.32 290.054 102.44 290.194C102.4 289.85 102.34 289.51 102.26 289.174V289.144ZM142.26 262.464C141.653 261.054 140.848 259.737 139.87 258.554C140.353 261.6 141.629 264.466 143.57 266.864C143.331 265.351 142.88 263.88 142.23 262.494L142.26 262.464ZM150.84 300.964C150.233 299.55 149.428 298.23 148.45 297.044C148.945 300.093 150.22 302.962 152.15 305.374C151.915 303.86 151.463 302.389 150.81 301.004L150.84 300.964ZM218.11 254.644C216.698 255.253 215.378 256.057 214.19 257.034C215.711 256.809 217.193 256.368 218.59 255.724C220.008 255.12 221.332 254.315 222.52 253.334C220.983 253.562 219.487 254.014 218.08 254.674L218.11 254.644ZM112.01 260.484L111.5 261.864C112.578 261.343 113.586 260.688 114.5 259.914C113.641 260.026 112.797 260.227 111.98 260.514L112.01 260.484ZM180.59 293.804C179.176 294.405 177.856 295.207 176.67 296.184C178.194 295.961 179.679 295.523 181.08 294.884C182.492 294.271 183.812 293.463 185 292.484C183.461 292.71 181.964 293.165 180.56 293.834L180.59 293.804ZM119.26 302.724L118.57 303.054L120.92 303.234C121.902 302.738 122.822 302.127 123.66 301.414C122.127 301.648 120.635 302.099 119.23 302.754L119.26 302.724ZM142.82 220.494C141.411 221.109 140.092 221.913 138.9 222.884C141.948 222.391 144.817 221.12 147.23 219.194C145.693 219.419 144.197 219.867 142.79 220.524L142.82 220.494ZM177.3 258.794C175.886 259.404 174.566 260.212 173.38 261.194C176.43 260.704 179.301 259.429 181.71 257.494C180.174 257.723 178.679 258.171 177.27 258.824L177.3 258.794ZM195.3 206.144C193.89 206.757 192.571 207.561 191.38 208.534C194.428 208.05 197.296 206.778 199.7 204.844C198.157 205.07 196.655 205.518 195.24 206.174L195.3 206.144Z" fill="white"/>
<path d="M206.95 181.234C199.19 180.084 191.31 164.424 189.95 153.744C189.86 153.004 201.95 129.934 203.84 125.124C204.23 124.124 231.19 144.484 231.19 144.484C231.19 144.484 224.19 153.404 220.92 161.834C220.69 162.534 214.45 182.334 206.95 181.234Z" fill="#D3766A"/>
<path d="M231.23 144.484C231.23 144.484 224.23 153.404 220.95 161.824C220.89 161.994 220.49 163.234 219.83 165.004C205.97 158.004 200.32 145.504 198.04 137.254C200.66 132.004 203.1 127.074 203.88 125.124C204.27 124.134 231.23 144.484 231.23 144.484Z" fill="#263238"/>
<path d="M210.07 87.6536C202.18 96.7836 194.29 129.714 198.8 139.834C205.35 154.494 222.8 163.304 236.92 153.934C250.65 144.844 260.17 101.744 254.5 91.8636C246.16 77.3036 221.71 74.1736 210.07 87.6536Z" fill="#D3766A"/>
<path d="M231.15 114.404C230.15 114.484 229.15 114.404 228.15 114.404C227.088 114.548 226.009 114.337 225.08 113.804C224.821 113.579 224.643 113.274 224.574 112.938C224.506 112.602 224.55 112.252 224.7 111.944C225.09 111.38 225.624 110.93 226.247 110.642C226.869 110.354 227.557 110.237 228.24 110.304C229.642 110.221 231.025 110.663 232.12 111.544C232.351 111.762 232.516 112.042 232.593 112.351C232.669 112.66 232.656 112.984 232.554 113.285C232.452 113.587 232.265 113.852 232.016 114.051C231.767 114.249 231.466 114.371 231.15 114.404Z" fill="#263238"/>
<path d="M230.27 119.234C230.27 119.144 230.07 119.304 230.05 119.404C229.68 121.654 228.87 124.174 226.7 124.514C226.63 124.514 226.61 124.634 226.7 124.644C229.23 124.784 230.27 121.434 230.27 119.234Z" fill="#263238"/>
<path d="M228.73 116.494C225.18 115.494 223.46 122.684 226.73 123.594C230 124.504 231.7 117.324 228.73 116.494Z" fill="#263238"/>
<path d="M243.17 122.004C243.17 121.924 243.32 122.154 243.3 122.244C242.7 124.444 242.38 127.074 244.21 128.244C244.27 128.244 244.21 128.394 244.16 128.364C241.79 127.484 242.25 124.004 243.17 122.004Z" fill="#263238"/>
<path d="M245.71 120.164C249.35 120.744 247.92 127.974 244.55 127.434C241.18 126.894 242.66 119.674 245.71 120.164Z" fill="#263238"/>
<path d="M249.4 116.604C248.481 116.177 247.586 115.699 246.72 115.174C245.703 114.798 244.841 114.094 244.27 113.174C244.145 112.852 244.13 112.498 244.227 112.166C244.325 111.835 244.53 111.546 244.81 111.344C246.04 110.544 247.46 110.914 248.72 111.534C250.004 112.119 251.027 113.159 251.59 114.454C251.708 114.758 251.734 115.091 251.666 115.41C251.597 115.729 251.436 116.021 251.203 116.25C250.97 116.479 250.675 116.634 250.354 116.697C250.034 116.76 249.702 116.728 249.4 116.604Z" fill="#263238"/>
<path d="M222.83 138.484C223.23 139.134 223.59 139.974 224.38 140.234C225.214 140.414 226.076 140.414 226.91 140.234C226.927 140.232 226.944 140.236 226.958 140.245C226.973 140.253 226.984 140.266 226.991 140.282C226.998 140.297 226.999 140.315 226.995 140.331C226.992 140.348 226.983 140.363 226.97 140.374C226.549 140.733 226.039 140.973 225.493 141.066C224.947 141.159 224.386 141.103 223.87 140.904C223.444 140.679 223.095 140.333 222.867 139.909C222.639 139.485 222.542 139.003 222.59 138.524C222.59 138.394 222.77 138.384 222.83 138.484Z" fill="#263238"/>
<path d="M226.75 132.394C227.107 133.406 227.668 134.335 228.399 135.121C229.13 135.907 230.016 136.535 231 136.964C231.855 137.35 232.761 137.612 233.69 137.744C233.864 137.783 234.042 137.803 234.22 137.804C234.39 137.814 234.56 137.814 234.73 137.804C234.854 137.811 234.976 137.777 235.078 137.706C235.179 137.635 235.254 137.532 235.29 137.414C235.295 137.334 235.295 137.254 235.29 137.174V136.974C235.74 135.274 236.2 132.634 236.2 132.634C236.75 133.094 239.59 135.294 239.76 134.384C241.09 126.884 242.56 118.544 242.3 110.794C242.3 110.738 242.278 110.685 242.238 110.645C242.199 110.606 242.146 110.584 242.09 110.584C242.034 110.584 241.981 110.606 241.941 110.645C241.902 110.685 241.88 110.738 241.88 110.794C240.32 117.954 240.03 125.344 238.57 132.564C237.592 131.76 236.504 131.1 235.34 130.604C235.08 130.604 234.55 135.724 234.28 136.464C234.282 136.49 234.282 136.517 234.28 136.544C231.28 136.224 229.36 134.834 227.03 132.244C226.88 132.074 226.66 132.184 226.75 132.394Z" fill="#263238"/>
<path d="M232.89 136.634C231.657 137.628 230.191 138.289 228.63 138.554C227.775 138.673 226.905 138.522 226.14 138.124C224.48 137.234 224.82 135.594 225.48 134.274C225.839 133.578 226.279 132.927 226.79 132.334C228.311 134.382 230.449 135.889 232.89 136.634Z" fill="#263238"/>
<path d="M228.63 138.554C227.775 138.673 226.905 138.522 226.14 138.124C224.48 137.234 224.82 135.594 225.48 134.274C227.34 134.924 228.91 136.674 228.63 138.554Z" fill="#FF97B8"/>
<path d="M257.52 104.684C243.52 110.544 229.36 94.3337 229.36 94.3337C227.756 96.7939 225.399 98.67 222.643 99.6827C219.886 100.695 216.875 100.79 214.06 99.9537C214.06 99.9537 207.34 120.224 201.86 119.004C193.53 117.224 196.86 88.3637 200.63 83.3437C204.4 78.3237 211.8 78.3437 211.8 78.3437C211.8 78.3437 213.21 74.1337 219.19 71.2637C225.79 68.0837 244.19 78.0537 244.19 78.0537C245.86 75.6585 248.069 73.689 250.64 72.3037C251.26 71.955 251.945 71.7358 252.653 71.6595C253.361 71.5832 254.077 71.6514 254.757 71.8599C255.438 72.0684 256.069 72.4129 256.613 72.8725C257.156 73.3321 257.601 73.8972 257.92 74.5337C256.554 75.8478 255.504 77.4548 254.85 79.2337C252.6 85.1137 257.57 86.1437 258.68 80.6137C259.162 78.5614 258.893 76.4042 257.92 74.5337C261.12 71.4337 265.37 71.0937 267.4 73.5337C271.13 78.0037 269.17 99.8237 257.52 104.684Z" fill="#263238"/>
<path d="M223.18 130.364C221.457 129.811 219.924 128.787 218.756 127.406C217.587 126.025 216.829 124.344 216.569 122.553C216.309 120.763 216.557 118.936 217.285 117.28C218.012 115.623 219.19 114.205 220.685 113.185C222.179 112.166 223.93 111.586 225.737 111.513C227.545 111.439 229.336 111.875 230.908 112.77C232.48 113.665 233.77 114.984 234.629 116.575C235.489 118.167 235.884 119.968 235.77 121.774C235.675 123.24 235.248 124.665 234.52 125.941C233.792 127.218 232.783 128.311 231.57 129.139C230.356 129.967 228.97 130.508 227.516 130.72C226.062 130.932 224.579 130.81 223.18 130.364ZM228.7 113.214C228.051 113.004 227.38 112.873 226.7 112.824C224.568 112.672 222.459 113.34 220.803 114.691C219.148 116.041 218.069 117.972 217.789 120.091C217.508 122.209 218.046 124.355 219.293 126.09C220.541 127.825 222.403 129.019 224.5 129.428C226.597 129.837 228.772 129.43 230.579 128.29C232.387 127.151 233.692 125.365 234.228 123.296C234.764 121.228 234.49 119.033 233.463 117.159C232.435 115.285 230.732 113.874 228.7 113.214Z" fill="#4CC1FF"/>
<path d="M244.49 134.404C241.03 133.104 239.23 128.404 240.49 123.494C241.027 121.145 242.29 119.024 244.1 117.434C244.831 116.697 245.741 116.162 246.741 115.882C247.741 115.602 248.796 115.586 249.804 115.836C250.811 116.086 251.737 116.593 252.49 117.308C253.243 118.022 253.798 118.92 254.1 119.914C254.947 122.17 255.07 124.635 254.45 126.964C253.17 132.124 249 135.554 245.15 134.594C244.925 134.55 244.704 134.487 244.49 134.404ZM249.9 117.254L249.43 117.114C248.622 116.951 247.787 116.984 246.995 117.212C246.203 117.44 245.477 117.856 244.88 118.424C243.283 119.841 242.167 121.722 241.69 123.804C240.58 128.284 242.23 132.564 245.4 133.344C248.57 134.124 252.03 131.124 253.14 126.654C253.697 124.59 253.592 122.404 252.84 120.404C252.598 119.702 252.212 119.059 251.705 118.516C251.199 117.973 250.584 117.543 249.9 117.254Z" fill="#4CC1FF"/>
<path d="M235.24 122.814L234.62 121.684C236.29 120.754 239.93 119.794 241.76 122.684L240.66 123.364C239.03 120.774 235.39 122.724 235.24 122.814Z" fill="#4CC1FF"/>
<path d="M192.56 116.914L191.56 116.114C191.94 115.644 195.31 111.514 198.22 111.614C200.95 111.714 217.61 116.614 218.32 116.864L217.95 118.104C213.17 116.684 200.29 112.974 198.18 112.904C196.24 112.834 193.47 115.774 192.56 116.914Z" fill="#4CC1FF"/>
<path d="M205.43 117.124C205.43 117.124 202.74 104.244 197.18 104.794C191.62 105.344 190.68 121.914 195.13 126.144C195.661 126.725 196.305 127.193 197.022 127.519C197.739 127.846 198.515 128.024 199.302 128.042C200.09 128.061 200.873 127.92 201.605 127.628C202.336 127.336 203.001 126.899 203.56 126.344L205.43 117.124Z" fill="#D3766A"/>
<path d="M197.03 109.554C196.95 109.504 196.88 109.614 196.94 109.684C200.01 112.764 200.48 117.034 200.33 121.174C199.81 119.334 198.63 117.934 196.23 118.464C196.11 118.464 196.14 118.674 196.23 118.704C196.97 118.772 197.671 119.07 198.234 119.556C198.797 120.042 199.194 120.691 199.37 121.414C199.663 122.619 199.827 123.853 199.86 125.094C199.86 125.504 200.56 125.584 200.6 125.094C200.595 125.06 200.595 125.027 200.6 124.994C202.74 120.374 201.9 112.194 197.03 109.554Z" fill="#263238"/>
<path d="M273.99 207.524C276.52 200.864 335.18 212.924 332.84 223.134C324.25 260.534 300.31 293.954 294.26 301.594C286.32 311.594 270.52 309.374 264.76 303.314C256.41 294.524 271.49 214.124 273.99 207.524Z" fill="#D3766A"/>
<path d="M269.86 225.884C268.556 229.468 267.523 233.145 266.77 236.884C265.92 240.584 265.18 244.304 264.58 248.044C263.394 255.609 262.726 263.247 262.58 270.904C262.47 275.184 262.58 279.454 262.58 283.734C262.58 283.834 262.74 283.824 262.74 283.734C262.74 279.944 262.97 276.124 263.28 272.344C263.59 268.564 263.97 264.714 264.46 260.924C265.41 253.474 266.46 246.034 267.81 238.644C268.183 236.57 268.573 234.504 268.98 232.444C269.41 230.304 269.9 228.174 270.18 226.004C270.18 225.844 269.93 225.704 269.86 225.884Z" fill="#263238"/>
<path d="M259.84 102.114C259.454 107.206 258.692 112.264 257.56 117.244C257.37 118.094 257.16 118.964 256.95 119.824C256.11 123.244 255.11 126.684 253.95 129.994C253.683 130.794 253.403 131.584 253.11 132.364C249.56 141.954 244.87 150.204 239.59 153.704C238.249 154.603 236.826 155.373 235.34 156.004C227.771 151.589 221.45 145.321 216.971 137.79C212.493 130.259 210.004 121.712 209.74 112.954L208.14 112.514C208.39 112.124 208.65 111.724 208.9 111.304C209.15 110.884 209.46 110.354 209.73 109.854C210.131 96.9791 215.331 84.7195 224.31 75.4837C236.88 72.1037 251.93 76.9338 258.26 87.9638C259.8 90.6938 260.27 95.8337 259.84 102.114Z" fill="#D3766A"/>
<path d="M233.49 111.834C232.427 111.889 231.362 111.889 230.3 111.834C229.07 111.834 228.09 111.924 227.04 111.194C226.757 110.954 226.564 110.627 226.491 110.263C226.418 109.9 226.471 109.523 226.64 109.194C227.41 107.834 228.91 107.484 230.39 107.454C231.875 107.366 233.34 107.833 234.5 108.764C234.757 108.992 234.942 109.29 235.031 109.622C235.121 109.953 235.112 110.304 235.004 110.631C234.897 110.957 234.696 111.245 234.427 111.459C234.158 111.673 233.832 111.803 233.49 111.834Z" fill="#263238"/>
<path d="M232.56 117.004C232.56 116.914 232.35 117.084 232.33 117.174C231.94 119.564 231.08 122.234 228.78 122.594C228.71 122.594 228.69 122.724 228.78 122.734C231.46 122.834 232.56 119.284 232.56 117.004Z" fill="#263238"/>
<path d="M230.93 114.054C227.17 113.004 225.35 120.604 228.83 121.574C232.31 122.544 234.08 114.934 230.93 114.054Z" fill="#263238"/>
<path d="M246.23 119.884C246.23 119.804 246.39 120.044 246.36 120.144C245.72 122.474 245.36 125.254 247.36 126.544C247.42 126.544 247.36 126.704 247.31 126.674C244.77 125.684 245.25 122.004 246.23 119.884Z" fill="#263238"/>
<path d="M248.92 117.934C252.77 118.554 251.25 126.214 247.68 125.644C244.11 125.074 245.69 117.414 248.92 117.934Z" fill="#263238"/>
<path d="M252.82 114.164C251.82 113.734 250.95 113.164 249.99 112.654C248.918 112.26 248.005 111.526 247.39 110.564C247.259 110.224 247.244 109.851 247.347 109.502C247.45 109.153 247.665 108.848 247.96 108.634C249.27 107.784 250.77 108.174 252.1 108.834C253.448 109.457 254.517 110.558 255.1 111.924C255.213 112.24 255.234 112.583 255.159 112.91C255.084 113.238 254.917 113.538 254.677 113.773C254.437 114.009 254.134 114.171 253.805 114.24C253.476 114.309 253.134 114.283 252.82 114.164Z" fill="#263238"/>
<path d="M224.68 137.344C225.11 138.024 225.49 138.914 226.33 139.194C227.209 139.389 228.12 139.389 229 139.194C229.017 139.193 229.035 139.198 229.05 139.207C229.065 139.216 229.077 139.23 229.084 139.246C229.092 139.262 229.094 139.28 229.092 139.297C229.089 139.314 229.082 139.331 229.07 139.344C228.623 139.726 228.082 139.98 227.502 140.078C226.923 140.177 226.328 140.117 225.78 139.904C225.331 139.665 224.962 139.297 224.722 138.849C224.482 138.4 224.38 137.89 224.43 137.384C224.42 137.244 224.61 137.244 224.68 137.344Z" fill="#263238"/>
<path d="M228.84 130.884C229.213 131.958 229.805 132.944 230.577 133.779C231.35 134.613 232.287 135.279 233.33 135.734C234.236 136.142 235.196 136.418 236.18 136.554C236.367 136.596 236.558 136.62 236.75 136.624C236.926 136.635 237.103 136.635 237.28 136.624C237.411 136.632 237.542 136.596 237.651 136.522C237.759 136.448 237.84 136.339 237.88 136.214C237.89 136.134 237.89 136.053 237.88 135.974V135.764C238.36 133.964 238.88 131.164 238.88 131.164C239.46 131.654 242.47 133.984 242.64 133.024C244.05 125.024 245.64 116.234 245.34 108.024C245.34 107.965 245.317 107.909 245.276 107.868C245.234 107.827 245.178 107.804 245.12 107.804C245.062 107.804 245.006 107.827 244.964 107.868C244.923 107.909 244.9 107.965 244.9 108.024C243.24 115.604 242.9 123.434 241.39 131.024C240.319 130.196 239.138 129.523 237.88 129.024C237.61 129.024 237.04 134.444 236.76 135.234C236.764 135.26 236.764 135.287 236.76 135.314C233.63 134.974 231.55 133.514 229.09 130.754C228.97 130.554 228.74 130.664 228.84 130.884Z" fill="#263238"/>
<path d="M235.34 135.384C234.034 136.428 232.48 137.116 230.83 137.384C229.927 137.513 229.006 137.352 228.2 136.924C226.43 135.984 226.8 134.244 227.5 132.854C227.877 132.115 228.34 131.424 228.88 130.794C230.488 132.975 232.751 134.583 235.34 135.384Z" fill="#263238"/>
<path d="M230.82 137.414C229.917 137.543 228.996 137.382 228.19 136.954C226.42 136.014 226.79 134.274 227.49 132.884C229.45 133.574 231.12 135.414 230.82 137.414Z" fill="#FF97B8"/>
<path d="M261.42 101.544C260.89 101.764 260.36 101.954 259.84 102.114C245.52 106.554 231.59 90.5738 231.59 90.5738C229.898 93.1878 227.407 95.1846 224.487 96.2659C221.567 97.3473 218.376 97.4553 215.39 96.5738C213.837 101.15 211.935 105.599 209.7 109.884C209.969 101.38 212.333 93.075 216.583 85.7046C220.832 78.3343 226.836 72.1271 234.06 67.6338C238.622 69.2345 243.06 71.1663 247.34 73.4138C249.113 70.8772 251.455 68.7914 254.18 67.3238C254.836 66.954 255.561 66.7212 256.31 66.6395C257.059 66.5578 257.817 66.629 258.538 66.8487C259.259 67.0684 259.927 67.432 260.504 67.9176C261.08 68.4032 261.551 69.0007 261.89 69.6738C260.447 71.0768 259.336 72.7853 258.64 74.6738C256.26 80.8938 261.52 81.9838 262.69 76.1338C263.207 73.9576 262.923 71.6679 261.89 69.6838C265.28 66.4138 269.78 66.0538 271.89 68.6838C275.83 73.3038 273.77 96.3938 261.42 101.544Z" fill="#263238"/>
<path d="M234.71 111.144C233.045 109.757 230.982 108.937 228.82 108.804C228.169 108.762 227.516 108.785 226.87 108.874C225.249 109.083 223.702 109.679 222.359 110.609C221.016 111.54 219.915 112.78 219.15 114.224C218.929 114.628 218.741 115.049 218.59 115.484C218.242 116.408 218.037 117.379 217.98 118.364C217.84 120.633 218.459 122.884 219.739 124.763C221.019 126.643 222.887 128.043 225.05 128.744C225.862 128.999 226.701 129.157 227.55 129.214H228.19C230.641 129.218 233.013 128.344 234.875 126.75C236.738 125.156 237.967 122.947 238.34 120.524C238.34 120.234 238.41 119.944 238.43 119.644C238.45 119.344 238.43 119.204 238.43 118.994C238.426 117.492 238.091 116.01 237.448 114.653C236.805 113.295 235.87 112.097 234.71 111.144ZM227.63 127.844C225.48 127.706 223.454 126.79 221.93 125.266C220.407 123.743 219.491 121.717 219.354 119.567C219.217 117.416 219.867 115.29 221.184 113.585C222.502 111.88 224.395 110.714 226.51 110.304C227.244 110.161 227.994 110.114 228.74 110.164C229.474 110.212 230.199 110.349 230.9 110.574C231.793 110.861 232.633 111.29 233.39 111.844C234.944 112.969 236.091 114.569 236.656 116.403C237.222 118.236 237.177 120.204 236.527 122.01C235.877 123.815 234.657 125.361 233.053 126.413C231.448 127.465 229.545 127.967 227.63 127.844Z" fill="#4CC1FF"/>
<path d="M257.74 117.674L257.56 117.244C256.948 115.838 255.895 114.669 254.56 113.914C254.129 113.674 253.668 113.493 253.19 113.374C252.493 113.204 251.771 113.164 251.06 113.254C249.61 113.457 248.251 114.079 247.15 115.044C246.323 115.748 245.608 116.574 245.03 117.494C244.589 118.175 244.217 118.899 243.92 119.654C243.716 120.141 243.549 120.642 243.42 121.154C243.384 121.255 243.354 121.359 243.33 121.464C242.737 123.731 242.8 126.12 243.51 128.354C243.806 129.388 244.329 130.344 245.039 131.151C245.75 131.959 246.632 132.599 247.62 133.024C247.83 133.104 248.04 133.164 248.26 133.224C249.088 133.412 249.945 133.432 250.782 133.285C251.618 133.137 252.416 132.824 253.13 132.364C255.677 130.699 257.471 128.104 258.13 125.134C258.783 122.667 258.646 120.059 257.74 117.674ZM256.74 124.804C256.285 126.754 255.315 128.547 253.93 129.994C253.278 130.754 252.438 131.329 251.494 131.662C250.55 131.996 249.535 132.076 248.55 131.894C245.19 131.064 243.44 126.534 244.62 121.794C245.124 119.59 246.302 117.598 247.99 116.094C248.625 115.493 249.395 115.053 250.236 114.811C251.076 114.569 251.962 114.532 252.82 114.704C252.986 114.743 253.15 114.793 253.31 114.854C254.034 115.162 254.686 115.619 255.223 116.194C255.76 116.769 256.171 117.45 256.43 118.194C256.644 118.72 256.804 119.266 256.91 119.824C257.229 121.473 257.185 123.173 256.78 124.804H256.74Z" fill="#4CC1FF"/>
<path d="M237.82 120.744L237.17 119.544C238.94 118.544 242.8 117.544 244.73 120.644L243.57 121.364C241.84 118.584 237.99 120.654 237.82 120.744Z" fill="#4CC1FF"/>
<path d="M219.89 114.444L219.5 115.754L218.59 115.484C216.34 114.824 213.02 113.864 209.71 112.944L208.11 112.504C208.36 112.114 208.62 111.714 208.87 111.294L209.68 111.524C213.68 112.624 217.55 113.754 219.15 114.224L219.89 114.444Z" fill="#4CC1FF"/>
<g opacity="0.3">
<path d="M272.34 161.794C262.377 163.988 251.987 163.179 242.484 159.468C232.981 155.757 224.791 149.311 218.952 140.946C213.112 132.581 209.884 122.672 209.676 112.472C209.468 102.273 212.29 92.2402 217.784 83.644C223.278 75.0478 231.197 68.2739 240.541 64.1788C249.885 60.0838 260.234 58.8516 270.278 60.6381C280.322 62.4246 289.611 67.1495 296.97 74.2153C304.329 81.2811 309.427 90.3704 311.62 100.334C313.077 106.949 313.217 113.786 312.031 120.454C310.846 127.123 308.358 133.493 304.711 139.2C301.063 144.908 296.327 149.841 290.773 153.717C285.218 157.594 278.955 160.338 272.34 161.794Z" fill="white"/>
<path d="M216.01 136.184C222.544 148.111 233.521 156.977 246.556 160.855C259.59 164.733 273.629 163.309 285.62 156.894L216.01 136.184Z" fill="#EBEBEB"/>
<path d="M217.49 84.1539L312.83 112.524C312.913 108.427 312.51 104.336 311.63 100.334C310.633 95.7431 309 91.3138 306.78 87.1739L236.4 66.2239C228.667 70.485 222.156 76.6583 217.49 84.1539Z" fill="#EBEBEB"/>
<path d="M210.05 117.444L300.86 144.444C303.024 141.845 304.929 139.042 306.55 136.074L209.85 107.294C209.571 110.675 209.638 114.076 210.05 117.444Z" fill="#EBEBEB"/>
<path d="M214.19 90.3939L312.19 119.564C312.29 118.944 312.38 118.324 312.45 117.704L214.97 88.7039C214.7 89.2539 214.43 89.8139 214.19 90.3939Z" fill="#EBEBEB"/>
<path d="M252.72 60.5639L296.22 73.5039C295.09 72.4539 293.9 71.5039 292.67 70.5039L257.34 60.0039C255.791 60.1112 254.249 60.2981 252.72 60.5639Z" fill="#EBEBEB"/>
</g>
<path d="M279.439 225.556L292.682 222.639L279.857 164.405L266.614 167.321L279.439 225.556Z" fill="#EBEBEB"/>
<path d="M317.26 99.0937C314.821 88.0184 309.153 77.915 300.972 70.0611C292.791 62.2071 282.465 56.9555 271.299 54.9702C260.134 52.9849 248.63 54.3551 238.243 58.9076C227.857 63.4601 219.053 70.9903 212.946 80.5461C206.839 90.1019 203.702 101.254 203.933 112.592C204.164 123.931 207.752 134.946 214.243 144.245C220.735 153.544 229.837 160.71 240.401 164.836C250.965 168.961 262.514 169.862 273.59 167.424C288.439 164.149 301.381 155.112 309.57 142.299C317.759 129.486 320.525 113.945 317.26 99.0937ZM272.34 161.794C262.377 163.99 251.986 163.182 242.482 159.473C232.978 155.764 224.788 149.319 218.947 140.955C213.106 132.59 209.876 122.681 209.667 112.481C209.458 102.281 212.278 92.2481 217.771 83.651C223.264 75.0539 231.183 68.2789 240.527 64.1828C249.871 60.0868 260.22 58.8536 270.264 60.6394C280.309 62.4251 289.599 67.1496 296.958 74.2151C304.318 81.2807 309.416 90.3701 311.61 100.334C313.067 106.948 313.207 113.784 312.023 120.452C310.838 127.121 308.351 133.49 304.704 139.197C301.058 144.905 296.323 149.838 290.77 153.715C285.216 157.592 278.954 160.337 272.34 161.794Z" fill="#455A64"/>
<path d="M284.91 266.534L304.94 262.124L293.58 210.494L273.54 214.904L284.91 266.534Z" fill="#263238"/>
<path d="M293.65 104.664C293.629 104.605 293.612 104.545 293.6 104.484C293.36 103.624 293.86 105.314 293.68 104.754C293.5 104.194 293.24 103.404 292.99 102.754C292.115 100.434 291.044 98.1925 289.79 96.0538C289.62 95.7538 289.43 95.4538 289.26 95.1538C289.2 95.0538 289.7 95.8538 289.26 95.2238L288.91 94.6838C288.45 93.9938 287.98 93.3138 287.49 92.6838C286.407 91.2204 285.228 89.8306 283.96 88.5238L283.04 87.6038C282.62 87.1938 283.53 88.0538 282.95 87.5238L282.37 86.9938C281.62 86.3438 280.85 85.7138 280.05 85.1138C279.25 84.5138 278.3 83.8538 277.39 83.2838C276.97 83.0238 276.55 82.7738 276.12 82.5338C275.38 82.1038 276.44 82.6838 275.89 82.4038L275.1 82.0038C272.711 80.8283 270.212 79.8905 267.64 79.2038H267.51L267.23 79.1438L266.08 78.8938C265.33 78.7438 264.59 78.6138 263.83 78.5038C262.242 78.2765 260.643 78.1296 259.04 78.0638C258.595 78.0132 258.164 77.8755 257.772 77.6584C257.38 77.4413 257.035 77.1492 256.756 76.7986C256.192 76.0907 255.933 75.1879 256.035 74.2888C256.137 73.3897 256.592 72.568 257.3 72.0044C258.008 71.4409 258.911 71.1817 259.81 71.2838C270.028 71.5999 279.798 75.5458 287.37 82.4138C292.4 87.1245 296.333 92.8838 298.89 99.2838C299.475 100.712 299.963 102.179 300.35 103.674C300.488 104.567 300.267 105.479 299.735 106.21C299.203 106.941 298.403 107.431 297.51 107.574C296.619 107.694 295.717 107.465 294.99 106.936C294.264 106.407 293.769 105.618 293.61 104.734L293.65 104.664Z" fill="white"/>
<path d="M295.05 114.714C295.151 115.371 295.446 115.984 295.896 116.474C296.346 116.964 296.931 117.31 297.577 117.467C298.224 117.624 298.903 117.585 299.527 117.356C300.152 117.127 300.695 116.718 301.086 116.18C301.478 115.642 301.701 115 301.728 114.335C301.754 113.671 301.583 113.013 301.235 112.446C300.887 111.878 300.379 111.427 299.775 111.149C299.17 110.871 298.497 110.779 297.84 110.884C296.963 111.024 296.177 111.506 295.655 112.223C295.132 112.941 294.914 113.836 295.05 114.714Z" fill="white"/>
<path d="M328.9 234.824C328.9 234.824 343.22 211.284 325.39 188.824C318.05 179.584 300.73 163.014 265.59 165.324C257.25 165.874 245.76 172.564 259.7 176.614C269.6 179.494 276.75 178.324 282.21 181.044C282.21 181.044 268.6 191.294 269.48 199.624C269.87 203.344 270.16 211.474 272.31 219.214C272.31 219.214 275.13 221.214 277.42 220.874C277.42 220.874 283.59 238.674 305.78 244.144L328.9 234.824Z" fill="#D3766A"/>
<path d="M317.86 185.804C312.12 183.514 299.86 178.874 288.51 178.554C275.9 178.204 251.51 180.934 251.36 190.244C251.24 197.074 260.64 196.844 260.64 196.844C260.64 196.844 250.8 200.094 252.05 206.284C253.18 211.924 260.44 211.284 260.44 211.284C260.44 211.284 254.81 214.284 256.95 219.504C259.52 225.784 270.89 218.504 278.95 222.584C280.81 223.544 317.86 185.804 317.86 185.804Z" fill="#D3766A"/>
<path d="M290.34 191.934C284.59 190.674 270.78 191.154 260.76 196.624C260.53 196.744 260.5 196.984 260.76 196.914C270.388 194.106 280.32 192.474 290.34 192.054C290.43 192.054 290.43 192.004 290.34 191.934Z" fill="#263238"/>
<path d="M289.64 204.654C284.56 204.074 270.35 205.204 260.39 211.094C260.16 211.224 260.15 211.464 260.39 211.384C269.865 208.081 279.685 205.864 289.66 204.774C289.676 204.771 289.69 204.762 289.699 204.749C289.709 204.736 289.713 204.72 289.71 204.704C289.707 204.688 289.698 204.674 289.685 204.664C289.672 204.655 289.656 204.651 289.64 204.654Z" fill="#263238"/>
<path d="M310.11 245.674C305.019 244.465 300.106 242.607 295.49 240.144C290.842 237.629 286.729 234.232 283.38 230.144C282.38 228.894 281.38 227.594 280.51 226.264C279.64 224.934 278.68 223.424 277.65 222.104C277.57 222.004 277.38 222.104 277.44 222.194C278.598 224.969 280.025 227.625 281.7 230.124C283.201 232.46 284.996 234.594 287.04 236.474C291.075 240.064 295.857 242.714 301.04 244.234C303.983 245.053 306.996 245.599 310.04 245.864C310.19 245.904 310.25 245.704 310.11 245.674Z" fill="#263238"/>
<path d="M164.14 170.344C138.38 204.934 95.3899 295.084 89.0699 308.344C84.7799 317.344 131.81 341.044 133.8 334.504C136.36 326.124 178.41 215.504 184.3 175.174C187.52 153.064 173.05 158.374 164.14 170.344Z" fill="#D3766A"/>
<path d="M135.07 330.004C133.98 338.154 128.44 354.574 124.32 357.084C120.2 359.594 98.5499 359.084 87.6399 359.084C76.7299 359.084 74.6399 356.034 74.7699 352.284C74.8999 348.534 97.8399 347.814 97.8399 347.814C97.8399 347.814 67.2599 356.534 59.5699 358.004C51.8799 359.474 34.1699 363.904 31.5699 357.534C30.4199 354.654 35.2699 351.744 35.2699 351.744C35.2699 351.744 27.8399 353.914 26.6499 350.224C25.3099 346.014 31.2199 343.704 31.2199 343.704C31.2199 343.704 26.5699 344.634 26.4599 341.204C26.2599 333.504 55.3399 329.744 55.3399 329.744C55.3399 329.744 33.0799 340.584 32.3399 334.324C31.3399 325.674 76.9799 316.184 81.7299 312.414C85.1859 309.533 88.4185 306.394 91.3999 303.024L135.07 330.004Z" fill="#D3766A"/>
<path d="M74.9299 354.144C74.8528 353.612 74.9033 353.071 75.0771 352.563C75.251 352.055 75.5434 351.596 75.9299 351.224C76.7141 350.505 77.6132 349.924 78.5899 349.504C80.6074 348.646 82.6995 347.977 84.8399 347.504C89.1399 346.414 93.5499 345.644 97.9399 344.504C93.4146 344.436 88.8989 344.94 84.4999 346.004C82.2522 346.519 80.0878 347.347 78.0699 348.464C77.0251 349.038 76.1095 349.821 75.3799 350.764C75.0212 351.241 74.7914 351.803 74.7126 352.395C74.6338 352.987 74.7086 353.589 74.9299 354.144Z" fill="#263238"/>
<path d="M35.3398 351.704C38.4898 350.934 41.5898 350.054 44.6798 349.154C47.7698 348.254 50.8498 347.314 53.9298 346.384L63.1398 343.504C66.2098 342.504 69.2798 341.584 72.3798 340.654C69.1616 341.008 65.971 341.579 62.8298 342.364C59.6698 343.084 56.5698 343.984 53.4798 344.924C50.3898 345.864 47.3298 346.924 44.3098 348.044C41.2898 349.164 38.2398 350.344 35.3398 351.704Z" fill="#263238"/>
<path d="M64.9598 333.004C61.9934 333.19 59.0452 333.598 56.1398 334.224C53.2242 334.803 50.3431 335.545 47.5098 336.444C44.6695 337.324 41.8816 338.366 39.1598 339.564C36.4281 340.731 33.7845 342.095 31.2498 343.644C34.0598 342.644 36.7998 341.594 39.5898 340.644C42.3798 339.694 45.1598 338.754 47.9698 337.894C50.7798 337.034 53.5898 336.184 56.4198 335.354C59.2498 334.524 62.0898 333.804 64.9598 333.004Z" fill="#263238"/>
<path d="M60.4598 325.724C55.6822 326.108 50.9755 327.117 46.4598 328.724C41.9001 330.234 37.5593 332.339 33.5498 334.984C38.0698 333.374 42.4698 331.674 46.9598 330.174C51.4498 328.674 55.8998 327.194 60.4598 325.724Z" fill="#263238"/>
<path d="M175.09 229.634L122.89 228.194C122.89 228.194 151.34 182.914 166.58 166.304C182.49 149.004 191.15 150.494 185.72 181.144C180.25 212.004 175.09 229.634 175.09 229.634Z" fill="#4CC1FF"/>
<path d="M142.79 220.524C141.381 221.14 140.062 221.944 138.87 222.914C141.918 222.422 144.787 221.151 147.2 219.224C145.675 219.443 144.19 219.88 142.79 220.524ZM171.94 187.364C171.337 185.948 170.532 184.628 169.55 183.444C170.031 186.494 171.307 189.364 173.25 191.764C173.03 190.241 172.589 188.759 171.94 187.364ZM147.87 197.204C147.3 198.632 146.936 200.133 146.79 201.664C148.602 199.165 149.727 196.234 150.05 193.164C149.129 194.396 148.394 195.758 147.87 197.204ZM170.87 217.644C170.295 219.073 169.934 220.579 169.8 222.114C171.601 219.609 172.724 216.681 173.06 213.614C172.135 214.845 171.391 216.202 170.85 217.644H170.87ZM186.17 158.194C185.92 158.714 185.69 159.244 185.47 159.784C184.906 161.213 184.542 162.714 184.39 164.244C185.311 163.023 186.051 161.675 186.59 160.244C186.64 160.114 186.68 159.994 186.72 159.864C186.577 159.292 186.386 158.734 186.15 158.194H186.17Z" fill="white"/>
<path d="M171.82 220.554C170.58 220.374 169.31 220.374 168.07 220.314L164.22 220.104C161.633 219.977 159.037 219.874 156.43 219.794C151.23 219.634 146.04 219.454 140.85 219.384C139.42 219.384 137.99 219.384 136.56 219.384C135.13 219.384 133.56 219.534 132.06 219.544C131.97 219.544 131.98 219.684 132.06 219.684C133.34 219.764 134.62 219.954 135.91 220.034C137.2 220.114 138.54 220.194 139.86 220.244C142.46 220.344 145.06 220.434 147.66 220.494C152.77 220.614 157.89 220.754 163 220.764H167.34C168.83 220.764 170.34 220.844 171.84 220.714C171.88 220.684 171.9 220.564 171.82 220.554Z" fill="#263238"/>
<path d="M185.21 195.684C185.21 195.584 185.09 195.524 185.04 195.624C184.072 197.407 183.243 199.263 182.56 201.174C182.74 200.264 182.95 199.354 183.12 198.434C183.69 195.494 184.21 192.534 184.79 189.594C184.784 189.576 184.772 189.561 184.757 189.55C184.742 189.539 184.724 189.533 184.705 189.533C184.686 189.533 184.668 189.539 184.653 189.55C184.638 189.561 184.626 189.576 184.62 189.594C183.27 194.654 181.7 199.664 180.5 204.764C179.3 209.864 178.09 214.964 176.97 220.084C176.36 222.914 175.81 226.444 175.19 229.264C173.68 229.444 171.74 229.264 170.11 229.474C169.97 229.474 170.01 229.724 170.11 229.724C171.83 229.774 173.88 230.164 175.69 230.054C175.92 230.054 180.3 211.864 182.12 203.154C183.24 200.674 184.28 198.194 185.21 195.684Z" fill="#263238"/>
<path d="M222.34 167.404C221.61 169.794 220.78 172.154 219.83 174.464C219.037 176.545 218.063 178.552 216.92 180.464C214.76 183.874 211.44 186.694 207.23 186.684C203.23 186.684 199.57 184.364 197.01 181.404C194.21 178.174 192.35 174.124 190.68 170.224C189.68 167.814 188.68 165.354 187.88 162.864C187.47 161.604 187.04 160.344 186.68 159.064C186.32 157.784 186.01 156.494 185.57 155.244C185.57 155.144 185.35 155.154 185.38 155.244C186.12 158.124 188.27 167.244 189.13 169.564C190.71 173.814 192.49 178.204 195.34 181.784C198.04 185.164 201.71 187.724 206.1 188.144C210.49 188.564 214.25 186.254 216.67 182.774C218.093 180.582 219.203 178.202 219.97 175.704C220.9 172.964 221.68 170.154 222.39 167.344C222.43 167.384 222.34 167.374 222.34 167.404Z" fill="#263238"/>
<path d="M386.2 361.504H314.49L311.29 298.464H386.2V361.504Z" fill="#DBDBDB"/>
<path d="M386.2 298.464L411.96 266.214L432.46 298.464L429.26 361.504H386.2V298.464Z" fill="#C7C7C7"/>
<path d="M336.32 255.974H412.87L440.48 301.014H431.59L412.87 269.834L391.28 304.734H304.97L336.32 255.974Z" fill="#A6A6A6"/>
<path d="M345.19 270.224H328.73L319.95 280.744H338.95L345.19 270.224Z" fill="#C7C7C7"/>
<path d="M332.72 278.944V291.754H323.56V278.944L328.14 273.214L332.72 278.944Z" fill="#DBDBDB"/>
<path d="M332.72 278.934H339.92L332.72 291.754V278.934Z" fill="#C7C7C7"/>
<path d="M330.51 279.144H325.3V287.934H330.51V279.144Z" fill="#FBFAFF"/>
<path d="M327.62 279.754H325.94V282.584H327.62V279.754Z" fill="#EBEBEB"/>
<path d="M329.86 279.754H328.18V282.584H329.86V279.754Z" fill="#EBEBEB"/>
<path d="M327.62 283.094H325.94V287.284H327.62V283.094Z" fill="#EBEBEB"/>
<path d="M329.86 283.094H328.18V287.284H329.86V283.094Z" fill="#EBEBEB"/>
<path d="M385.49 270.224H369.03L360.79 280.744H379.21L385.49 270.224Z" fill="#C7C7C7"/>
<path d="M373.02 278.944V291.754H363.86V278.944L368.44 273.214L373.02 278.944Z" fill="#DBDBDB"/>
<path d="M373.02 278.934H380.23L373.02 291.754V278.934Z" fill="#C7C7C7"/>
<path d="M370.81 279.144H365.6V287.934H370.81V279.144Z" fill="#FBFAFF"/>
<path d="M367.92 279.754H366.24V282.584H367.92V279.754Z" fill="#EBEBEB"/>
<path d="M370.17 279.754H368.49V282.584H370.17V279.754Z" fill="#EBEBEB"/>
<path d="M367.92 283.094H366.24V287.284H367.92V283.094Z" fill="#EBEBEB"/>
<path d="M370.17 283.094H368.49V287.284H370.17V283.094Z" fill="#EBEBEB"/>
<path d="M399.14 254.154H389.98V266.214H399.14V254.154Z" fill="#DBDBDB"/>
<path d="M399.14 254.154H406.34V256.094L399.14 266.214V254.154Z" fill="#C7C7C7"/>
<path d="M399.14 250.054H388.95V254.154H399.14V250.054Z" fill="#C7C7C7"/>
<path d="M407.13 250.054H399.14V254.154H407.13V250.054Z" fill="#A6A6A6"/>
<path d="M333.41 309.894H322.07V329.044H333.41V309.894Z" fill="#FBFAFF"/>
<path d="M327.12 311.224H323.47V317.394H327.12V311.224Z" fill="#EBEBEB"/>
<path d="M332.01 311.224H328.36V317.394H332.01V311.224Z" fill="#EBEBEB"/>
<path d="M327.12 318.504H323.47V327.644H327.12V318.504Z" fill="#EBEBEB"/>
<path d="M332.01 318.504H328.36V327.644H332.01V318.504Z" fill="#EBEBEB"/>
<path d="M375.53 309.894H364.19V329.044H375.53V309.894Z" fill="#FBFAFF"/>
<path d="M369.24 311.224H365.59V317.394H369.24V311.224Z" fill="#EBEBEB"/>
<path d="M374.13 311.224H370.48V317.394H374.13V311.224Z" fill="#EBEBEB"/>
<path d="M369.24 318.504H365.59V327.644H369.24V318.504Z" fill="#EBEBEB"/>
<path d="M374.13 318.504H370.48V327.644H374.13V318.504Z" fill="#EBEBEB"/>
<path d="M333.41 336.504H322.07V355.654H333.41V336.504Z" fill="#FBFAFF"/>
<path d="M327.12 337.834H323.47V344.004H327.12V337.834Z" fill="#EBEBEB"/>
<path d="M332.01 337.834H328.36V344.004H332.01V337.834Z" fill="#EBEBEB"/>
<path d="M327.12 345.114H323.47V354.254H327.12V345.114Z" fill="#EBEBEB"/>
<path d="M332.01 345.114H328.36V354.254H332.01V345.114Z" fill="#EBEBEB"/>
<path d="M375.53 336.504H364.19V355.654H375.53V336.504Z" fill="#FBFAFF"/>
<path d="M369.24 337.834H365.59V344.004H369.24V337.834Z" fill="#EBEBEB"/>
<path d="M374.13 337.834H370.48V344.004H374.13V337.834Z" fill="#EBEBEB"/>
<path d="M369.24 345.114H365.59V354.254H369.24V345.114Z" fill="#EBEBEB"/>
<path d="M374.13 345.114H370.48V354.254H374.13V345.114Z" fill="#EBEBEB"/>
<path d="M354.41 309.894H343.07V329.044H354.41V309.894Z" fill="#FBFAFF"/>
<path d="M348.12 311.224H344.47V317.394H348.12V311.224Z" fill="#EBEBEB"/>
<path d="M353.02 311.224H349.37V317.394H353.02V311.224Z" fill="#EBEBEB"/>
<path d="M348.12 318.504H344.47V327.644H348.12V318.504Z" fill="#EBEBEB"/>
<path d="M353.02 318.504H349.37V327.644H353.02V318.504Z" fill="#EBEBEB"/>
<path d="M354.41 336.634H343.07V355.784H354.41V336.634Z" fill="#FBFAFF"/>
<path d="M348.12 337.954H344.47V344.124H348.12V337.954Z" fill="#EBEBEB"/>
<path d="M353.02 337.954H349.37V344.124H353.02V337.954Z" fill="#EBEBEB"/>
<path d="M348.12 345.244H344.47V354.384H348.12V345.244Z" fill="#EBEBEB"/>
<path d="M353.02 345.244H349.37V354.384H353.02V345.244Z" fill="#EBEBEB"/>
<path d="M406.58 329.044H417.92V309.894H406.58V329.044Z" fill="#FBFAFF"/>
<path d="M416.52 311.224H412.87V317.394H416.52V311.224Z" fill="#EBEBEB"/>
<path d="M411.62 311.224H407.97V317.394H411.62V311.224Z" fill="#EBEBEB"/>
<path d="M416.52 318.504H412.87V327.644H416.52V318.504Z" fill="#EBEBEB"/>
<path d="M411.62 318.504H407.97V327.644H411.62V318.504Z" fill="#EBEBEB"/>
<path d="M406.58 299.444H417.92V283.234H406.58V299.444Z" fill="#FBFAFF"/>
<path d="M416.52 284.554H412.87V290.724H416.52V284.554Z" fill="#EBEBEB"/>
<path d="M411.62 284.554H407.97V290.724H411.62V284.554Z" fill="#EBEBEB"/>
<path d="M416.52 291.904H412.87V298.074H416.52V291.904Z" fill="#EBEBEB"/>
<path d="M411.62 291.904H407.97V298.074H411.62V291.904Z" fill="#EBEBEB"/>
<path d="M404.966 361.621L418.716 361.686L418.834 336.716L405.084 336.651L404.966 361.621Z" fill="#FBFAFF"/>
<path d="M410.459 338.38L410.442 342.12L413.402 342.134L413.419 338.394L410.459 338.38Z" fill="#EBEBEB"/>
<path d="M406.591 338.36L406.573 342.1L409.533 342.114L409.551 338.374L406.591 338.36Z" fill="#EBEBEB"/>
<path d="M408.742 355.699L414.992 355.729L414.996 354.829L408.746 354.799L408.742 355.699Z" fill="#EBEBEB"/>
<path d="M412.31 336.474V340.214H415.27V336.474H412.31Z" fill="#EBEBEB"/>
<path d="M410.449 343.102L410.432 346.842L413.392 346.856L413.409 343.116L410.449 343.102Z" fill="#EBEBEB"/>
<path d="M406.551 343.072L406.533 346.812L409.493 346.826L409.511 343.086L406.551 343.072Z" fill="#EBEBEB"/>
<path d="M414.327 343.123L414.31 346.863L417.27 346.876L417.287 343.137L414.327 343.123Z" fill="#EBEBEB"/>
<path d="M410.429 347.835L410.411 351.575L413.371 351.589L413.389 347.849L410.429 347.835Z" fill="#EBEBEB"/>
<path d="M406.541 347.814L406.523 351.554L409.483 351.568L409.501 347.828L406.541 347.814Z" fill="#EBEBEB"/>
<path d="M414.307 347.855L414.29 351.595L417.25 351.609L417.267 347.869L414.307 347.855Z" fill="#EBEBEB"/>
<path d="M188.84 361.674H125.14L122.29 330.804H188.84V361.674Z" fill="#DBDBDB"/>
<path d="M188.82 330.764L211.7 302.124L229.92 330.764L227.07 361.634H188.82V330.764Z" fill="#C7C7C7"/>
<path d="M144.15 293.064H213.34L238.97 336.374H231.98L212.4 303.774L193.59 336.374H116.93L144.15 293.064Z" fill="#A6A6A6"/>
<path d="M142.1 342.264H132.02V356.664H142.1V342.264Z" fill="#FBFAFF"/>
<path d="M136.5 343.444H133.26V348.924H136.5V343.444Z" fill="#DBDBDB"/>
<path d="M140.85 343.444H137.61V348.924H140.85V343.444Z" fill="#DBDBDB"/>
<path d="M136.5 349.964H133.26V355.444H136.5V349.964Z" fill="#DBDBDB"/>
<path d="M140.85 349.964H137.61V355.444H140.85V349.964Z" fill="#DBDBDB"/>
<path d="M179.12 342.264H169.04V356.664H179.12V342.264Z" fill="#FBFAFF"/>
<path d="M173.52 343.444H170.28V348.924H173.52V343.444Z" fill="#DBDBDB"/>
<path d="M177.87 343.444H174.63V348.924H177.87V343.444Z" fill="#DBDBDB"/>
<path d="M173.52 349.964H170.28V355.444H173.52V349.964Z" fill="#DBDBDB"/>
<path d="M177.87 349.964H174.63V355.444H177.87V349.964Z" fill="#DBDBDB"/>
<path d="M160.67 341.494H149.56V361.674H160.67V341.494Z" fill="#FBFAFF"/>
<path d="M156.31 342.884H153.92V345.904H156.31V342.884Z" fill="#DBDBDB"/>
<path d="M159.45 342.884H157.06V345.904H159.45V342.884Z" fill="#DBDBDB"/>
<path d="M157.64 356.134H152.59V356.864H157.64V356.134Z" fill="#DBDBDB"/>
<path d="M153.17 342.884H150.78V345.904H153.17V342.884Z" fill="#DBDBDB"/>
<path d="M156.31 346.704H153.92V349.724H156.31V346.704Z" fill="#DBDBDB"/>
<path d="M159.45 346.704H157.06V349.724H159.45V346.704Z" fill="#DBDBDB"/>
<path d="M153.17 346.704H150.78V349.724H153.17V346.704Z" fill="#DBDBDB"/>
<path d="M156.31 350.524H153.92V353.544H156.31V350.524Z" fill="#DBDBDB"/>
<path d="M159.45 350.524H157.06V353.544H159.45V350.524Z" fill="#DBDBDB"/>
<path d="M153.17 350.524H150.78V353.544H153.17V350.524Z" fill="#DBDBDB"/>
<path d="M158.79 291.334H150.65V302.044H158.79V291.334Z" fill="#DBDBDB"/>
<path d="M158.79 291.334H165.19V293.054L158.79 302.044V291.334Z" fill="#C7C7C7"/>
<path d="M158.79 287.684H149.74V291.324H158.79V287.684Z" fill="#C7C7C7"/>
<path d="M165.89 287.684H158.79V291.324H165.89V287.684Z" fill="#A6A6A6"/>
<path d="M214.02 361.684H234.68L236.65 340.394H214.02V361.684Z" fill="#C7C7C7"/>
<path d="M214.02 340.394L203.81 335.784L204.04 361.684H214.02V340.394Z" fill="#DBDBDB"/>
<path d="M229.84 345.904H221.15V361.674H229.84V345.904Z" fill="#FBFAFF"/>
<path d="M226.43 346.984H224.56V349.344H226.43V346.984Z" fill="#DBDBDB"/>
<path d="M228.88 346.984H227.01V349.344H228.88V346.984Z" fill="#DBDBDB"/>
<path d="M227.47 356.284H223.52V356.854H227.47V356.284Z" fill="#DBDBDB"/>
<path d="M223.98 346.984H222.11V349.344H223.98V346.984Z" fill="#DBDBDB"/>
<path d="M202.25 334.724H232.27L241.97 342.104H213.15L202.25 334.724Z" fill="#A6A6A6"/>
<path d="M213.15 342.104H202.25V334.724L213.15 342.104Z" fill="#C7C7C7"/>
<path d="M206.7 323.934C206.7 324.953 207.002 325.949 207.569 326.796C208.135 327.643 208.94 328.303 209.881 328.693C210.823 329.082 211.859 329.184 212.858 328.984C213.858 328.784 214.775 328.293 215.495 327.572C216.215 326.851 216.705 325.932 216.902 324.932C217.1 323.933 216.996 322.897 216.605 321.956C216.214 321.015 215.552 320.211 214.704 319.647C213.856 319.082 212.859 318.782 211.84 318.784C210.476 318.786 209.168 319.33 208.205 320.296C207.241 321.261 206.7 322.57 206.7 323.934Z" fill="#FBFAFF"/>
<path d="M207.85 323.934C207.85 324.994 208.271 326.012 209.021 326.762C209.772 327.512 210.789 327.934 211.85 327.934C212.188 327.936 212.524 327.892 212.85 327.804C213.781 327.551 214.59 326.97 215.127 326.167C215.663 325.365 215.892 324.396 215.77 323.439C215.648 322.481 215.184 321.6 214.464 320.958C213.743 320.315 212.815 319.955 211.85 319.944C211.512 319.942 211.176 319.986 210.85 320.074C210.384 320.187 209.946 320.391 209.56 320.674C209.035 321.04 208.605 321.528 208.308 322.095C208.01 322.663 207.853 323.293 207.85 323.934Z" fill="#C7C7C7"/>
<path d="M211.29 328.634H212.4V319.154H211.29V328.634Z" fill="#FBFAFF"/>
<path d="M216.59 324.444V323.334H207.11V324.444H216.59Z" fill="#FBFAFF"/>
<path d="M243.46 361.684H211.27L209.07 337.874H243.46V361.684Z" fill="#4CC1FF"/>
<path opacity="0.2" d="M243.46 361.684H211.27L209.07 337.874H243.46V361.684Z" fill="black"/>
<path d="M243.46 337.874L261.11 315.774L275.16 337.874L272.97 361.684H243.46V337.874Z" fill="#4CC1FF"/>
<path d="M245.59 340.784H201.91L228.48 307.374H261.29L281.01 340.784H276L261.29 317.894L245.59 340.784Z" fill="#4CC1FF"/>
<path opacity="0.4" d="M245.59 340.784H201.91L228.48 307.374H261.29L281.01 340.784H276L261.29 317.894L245.59 340.784Z" fill="black"/>
<path d="M289.67 277.824H280.57V289.804H289.67V277.824Z" fill="#4CC1FF"/>
<path opacity="0.2" d="M289.67 277.824H280.57V289.804H289.67V277.824Z" fill="black"/>
<path d="M296.83 277.824H289.67V289.804H296.83V277.824Z" fill="#4CC1FF"/>
<path d="M289.67 273.744H279.55V277.814H289.67V273.744Z" fill="#4CC1FF"/>
<path opacity="0.5" d="M289.67 273.744H279.55V277.814H289.67V273.744Z" fill="black"/>
<path d="M297.61 273.744H289.67V277.814H297.61V273.744Z" fill="#4CC1FF"/>
<path opacity="0.4" d="M297.61 273.744H289.67V277.814H297.61V273.744Z" fill="black"/>
<path d="M321.65 361.654H250.4L247.21 327.124H321.65V361.654Z" fill="#4CC1FF"/>
<path opacity="0.2" d="M321.65 361.654H250.4L247.21 327.124H321.65V361.654Z" fill="black"/>
<path d="M321.65 327.124L347.24 295.074L367.62 327.124L364.43 361.654H321.65V327.124Z" fill="#4CC1FF"/>
<path d="M346.93 297.104L367.97 329.644H375.32L347.56 284.904H271.77L233.37 333.354H325.94L346.93 297.104Z" fill="#4CC1FF"/>
<path opacity="0.5" d="M346.93 297.104L367.97 329.644H375.32L347.56 284.904H271.77L233.37 333.354H325.94L346.93 297.104Z" fill="black"/>
<path d="M340.59 331.974H351.86V315.864H340.59V331.974Z" fill="#FBFAFF"/>
<path d="M350.47 317.174H346.84V323.304H350.47V317.174Z" fill="#4CC1FF"/>
<path d="M345.61 317.174H341.98V323.304H345.61V317.174Z" fill="#4CC1FF"/>
<path d="M350.47 324.474H346.84V330.604H350.47V324.474Z" fill="#4CC1FF"/>
<path d="M345.61 324.474H341.98V330.604H345.61V324.474Z" fill="#4CC1FF"/>
<path d="M269.36 339.934H258.09V356.044H269.36V339.934Z" fill="#FBFAFF"/>
<path d="M263.11 341.254H259.48V347.384H263.11V341.254Z" fill="#4CC1FF"/>
<path d="M267.98 341.254H264.35V347.384H267.98V341.254Z" fill="#4CC1FF"/>
<path d="M263.11 348.554H259.48V354.684H263.11V348.554Z" fill="#4CC1FF"/>
<path d="M267.98 348.554H264.35V354.684H267.98V348.554Z" fill="#4CC1FF"/>
<path d="M290.07 339.934H278.8V356.044H290.07V339.934Z" fill="#FBFAFF"/>
<path d="M283.81 341.254H280.18V347.384H283.81V341.254Z" fill="#4CC1FF"/>
<path d="M288.68 341.254H285.05V347.384H288.68V341.254Z" fill="#4CC1FF"/>
<path d="M283.81 348.554H280.18V354.684H283.81V348.554Z" fill="#4CC1FF"/>
<path d="M288.68 348.554H285.05V354.684H288.68V348.554Z" fill="#4CC1FF"/>
<path d="M310.77 339.934H299.5V356.044H310.77V339.934Z" fill="#FBFAFF"/>
<path d="M304.52 341.254H300.89V347.384H304.52V341.254Z" fill="#4CC1FF"/>
<path d="M309.38 341.254H305.75V347.384H309.38V341.254Z" fill="#4CC1FF"/>
<path d="M304.52 348.554H300.89V354.684H304.52V348.554Z" fill="#4CC1FF"/>
<path d="M309.38 348.554H305.75V354.684H309.38V348.554Z" fill="#4CC1FF"/>
<path d="M340.01 361.644H352.44V339.074H340.01V361.644Z" fill="#FBFAFF"/>
<path d="M347.57 340.634H344.89V344.014H347.57V340.634Z" fill="#4CC1FF"/>
<path d="M344.06 340.634H341.38V344.014H344.06V340.634Z" fill="#4CC1FF"/>
<path d="M343.4 356.274H349.05V355.454H343.4V356.274Z" fill="#4CC1FF"/>
<path d="M351.07 340.634H348.39V344.014H351.07V340.634Z" fill="#4CC1FF"/>
<path d="M347.57 344.904H344.89V348.284H347.57V344.904Z" fill="#4CC1FF"/>
<path d="M344.06 344.904H341.38V348.284H344.06V344.904Z" fill="#4CC1FF"/>
<path d="M351.07 344.904H348.39V348.284H351.07V344.904Z" fill="#4CC1FF"/>
<path d="M347.57 349.174H344.89V352.554H347.57V349.174Z" fill="#4CC1FF"/>
<path d="M344.06 349.174H341.38V352.554H344.06V349.174Z" fill="#4CC1FF"/>
<path d="M351.07 349.174H348.39V352.554H351.07V349.174Z" fill="#4CC1FF"/>
<path d="M301.11 296.504H284.75L276.34 307.004H294.86L301.11 296.504Z" fill="#4CC1FF"/>
<path opacity="0.4" d="M301.11 296.504H284.75L276.34 307.004H294.86L301.11 296.504Z" fill="black"/>
<path d="M288.72 305.164V317.894H279.61V305.164L284.17 299.474L288.72 305.164Z" fill="#4CC1FF"/>
<path opacity="0.2" d="M288.72 305.164V317.894H279.61V305.164L284.17 299.474L288.72 305.164Z" fill="black"/>
<path d="M288.72 305.164H295.88L288.72 317.894V305.164Z" fill="#4CC1FF"/>
<path d="M286.51 305.364H281.34V314.094H286.51V305.364Z" fill="#FBFAFF"/>
<path d="M283.65 305.964H281.98V308.774H283.65V305.964Z" fill="#4CC1FF"/>
<path d="M285.88 305.964H284.21V308.774H285.88V305.964Z" fill="#4CC1FF"/>
<path d="M283.65 309.294H281.98V313.464H283.65V309.294Z" fill="#4CC1FF"/>
<path d="M285.88 309.294H284.21V313.464H285.88V309.294Z" fill="#4CC1FF"/>
<path d="M395.96 174.924C400.413 178.711 403.727 183.661 405.53 189.222C407.334 194.783 407.556 200.736 406.172 206.416C404.788 212.096 401.853 217.28 397.694 221.389C393.535 225.497 388.316 228.369 382.62 229.684L375.62 244.014L368.83 229.784C363.752 228.696 359.026 226.359 355.08 222.984C351.924 220.299 349.328 217.019 347.44 213.331C345.552 209.642 344.409 205.619 344.076 201.489C343.404 193.148 346.072 184.882 351.495 178.509C356.917 172.136 364.649 168.177 372.99 167.505C381.33 166.833 389.597 169.501 395.97 174.924H395.96Z" fill="white"/>
<path d="M395.96 174.924C400.413 178.712 403.732 183.657 405.55 189.214C406.005 190.596 406.373 192.005 406.65 193.434C406.889 194.87 407.04 196.319 407.1 197.774C407.236 200.691 406.963 203.612 406.29 206.454C405.628 209.302 404.575 212.045 403.16 214.604C402.444 215.879 401.639 217.102 400.75 218.264C399.891 219.449 398.942 220.565 397.91 221.604C393.74 225.804 388.478 228.755 382.72 230.124L383.03 229.884L376.11 244.254L375.61 245.304L375.11 244.254L368.27 230.054L368.69 230.384C362.731 229.092 357.267 226.121 352.943 221.821C348.62 217.521 345.619 212.073 344.294 206.121C342.97 200.17 343.378 193.963 345.47 188.236C347.562 182.509 351.251 177.5 356.1 173.804C359.946 170.921 364.388 168.933 369.1 167.984C373.81 167.03 378.676 167.159 383.329 168.362C387.982 169.564 392.301 171.808 395.96 174.924ZM395.96 174.924C392.326 171.821 388.028 169.595 383.398 168.416C378.767 167.237 373.928 167.137 369.253 168.123C364.578 169.109 360.191 171.156 356.432 174.105C352.673 177.055 349.641 180.828 347.57 185.134C345.505 189.391 344.438 194.062 344.45 198.794C344.508 203.502 345.586 208.142 347.61 212.394C349.661 216.624 352.646 220.334 356.34 223.244C360.04 226.139 364.342 228.169 368.93 229.184L369.23 229.254L369.35 229.524L376.1 243.774H375.1L382.21 229.494L382.3 229.294H382.51C388.163 228.056 393.358 225.265 397.51 221.234C398.541 220.228 399.494 219.145 400.36 217.994C401.255 216.864 402.067 215.671 402.79 214.424C404.24 211.922 405.33 209.229 406.03 206.424C406.755 203.617 407.065 200.72 406.95 197.824C406.898 196.377 406.761 194.934 406.54 193.504C406.269 192.08 405.912 190.674 405.47 189.294C403.688 183.717 400.396 178.743 395.96 174.924Z" fill="#263238"/>
<path d="M384.09 190.944C383.74 190.587 383.351 190.272 382.93 190.004C382.372 189.642 381.787 189.325 381.18 189.054C379.711 188.388 378.138 187.982 376.53 187.854V196.854L377.36 197.024C378.792 197.366 380.204 197.786 381.59 198.284C382.732 198.685 383.807 199.254 384.78 199.974C385.627 200.625 386.311 201.464 386.78 202.424C387.281 203.535 387.524 204.745 387.49 205.964C387.53 207.317 387.249 208.66 386.67 209.884C386.135 210.957 385.354 211.889 384.39 212.604C383.369 213.348 382.22 213.897 381 214.224C379.651 214.595 378.259 214.794 376.86 214.814V219.374H374.61V214.724C372.562 214.6 370.542 214.186 368.61 213.494C366.749 212.824 365.007 211.862 363.45 210.644L365.66 206.484C366.078 206.913 366.545 207.292 367.05 207.614C367.727 208.055 368.436 208.446 369.17 208.784C370.034 209.182 370.927 209.517 371.84 209.784C372.82 210.074 373.824 210.278 374.84 210.394V201.394C374.67 201.344 374.48 201.284 374.3 201.244C374.117 201.206 373.936 201.156 373.76 201.094C372.404 200.743 371.068 200.316 369.76 199.814C368.73 199.43 367.771 198.879 366.92 198.184C366.188 197.58 365.603 196.817 365.21 195.954C364.789 194.973 364.587 193.911 364.62 192.844C364.592 191.548 364.845 190.263 365.36 189.074C365.84 187.988 366.55 187.019 367.44 186.234C368.36 185.419 369.425 184.784 370.58 184.364C371.867 183.895 373.213 183.612 374.58 183.524V179.134H376.83V183.524C378.617 183.615 380.376 183.996 382.04 184.654C383.534 185.236 384.949 186.006 386.25 186.944L384.09 190.944ZM369.77 192.064C369.734 192.591 369.833 193.119 370.057 193.599C370.281 194.078 370.622 194.492 371.05 194.804C372.243 195.554 373.555 196.095 374.93 196.404V187.854C373.525 187.819 372.148 188.256 371.02 189.094C370.604 189.465 370.276 189.924 370.06 190.438C369.843 190.951 369.744 191.507 369.77 192.064ZM382.34 206.474C382.367 205.902 382.24 205.333 381.972 204.827C381.705 204.32 381.307 203.895 380.82 203.594C379.492 202.805 378.057 202.212 376.56 201.834V210.424C378.052 210.497 379.535 210.15 380.84 209.424C381.327 209.107 381.722 208.668 381.985 208.15C382.248 207.632 382.371 207.054 382.34 206.474Z" fill="#4CC1FF"/>
</svg>
