<svg width="227" height="181" viewBox="0 0 227 181" fill="none" xmlns="http://www.w3.org/2000/svg">
<path d="M207.423 113.975C207.423 113.975 202.524 111.252 202.161 117.419C201.799 123.586 200.89 163.701 200.89 163.701" stroke="#263238" stroke-width="2" stroke-linecap="round" stroke-linejoin="round"/>
<path d="M199.602 117.965C199.602 117.965 203.588 126.859 201.783 163.155" stroke="#263238" stroke-width="2" stroke-linecap="round" stroke-linejoin="round"/>
<path d="M203.545 115.215C203.545 115.215 201.667 116.411 200.603 115.043C199.538 113.676 201.324 111.149 199.75 110.072C198.175 108.996 195.452 110.638 195.452 110.638C195.452 110.638 197.545 111.252 197.477 112.396C197.41 113.54 196.401 113.991 196.281 113.473C196.162 112.954 195.145 110.455 193.443 111.503C192.954 111.793 192.528 112.18 192.191 112.639C191.855 113.098 191.615 113.62 191.486 114.174C191.486 114.174 195.444 113.752 195.683 115.243C195.923 116.733 194.061 114.983 192.427 114.888C190.792 114.792 189.301 115.031 189.409 116.02C189.445 116.895 189.393 117.771 189.253 118.635C190.147 117.89 191.279 117.491 192.443 117.511C194.24 117.614 194.173 118.759 192.538 118.663C190.904 118.567 189.501 120.122 189.501 120.122C189.501 120.122 190.992 122.669 192.885 123.929C194.779 125.189 195.46 124.726 195.676 123.765C195.891 122.805 195.388 120.305 196.533 120.373C197.677 120.441 194.639 124.69 196.098 124.941C197.557 125.193 198.733 124.766 199.116 123.805L199.514 122.845C199.514 122.845 199.004 120.357 199.227 119.384C199.451 118.412 199.718 119.412 199.977 120.58C200.236 121.748 200.399 124.543 200.898 124.407C201.396 124.272 202.995 122.235 203.369 121.437C203.744 120.64 201.264 118.196 201.292 117.706C201.32 117.216 203.234 118.149 203.533 118.659C203.749 119.047 203.945 119.446 204.119 119.855C204.119 119.855 205.315 119.105 205.283 116.809C205.251 114.513 203.545 115.215 203.545 115.215Z" fill="#4CC1FF"/>
<path opacity="0.3" d="M203.545 115.215C203.545 115.215 201.667 116.411 200.603 115.043C199.538 113.676 201.324 111.149 199.75 110.072C198.175 108.996 195.452 110.638 195.452 110.638C195.452 110.638 197.545 111.252 197.477 112.396C197.41 113.54 196.401 113.991 196.281 113.473C196.162 112.954 195.145 110.455 193.443 111.503C192.954 111.793 192.528 112.18 192.191 112.639C191.855 113.098 191.615 113.62 191.486 114.174C191.486 114.174 195.444 113.752 195.683 115.243C195.923 116.733 194.061 114.983 192.427 114.888C190.792 114.792 189.301 115.031 189.409 116.02C189.445 116.895 189.393 117.771 189.253 118.635C190.147 117.89 191.279 117.491 192.443 117.511C194.24 117.614 194.173 118.759 192.538 118.663C190.904 118.567 189.501 120.122 189.501 120.122C189.501 120.122 190.992 122.669 192.885 123.929C194.779 125.189 195.46 124.726 195.676 123.765C195.891 122.805 195.388 120.305 196.533 120.373C197.677 120.441 194.639 124.69 196.098 124.941C197.557 125.193 198.733 124.766 199.116 123.805L199.514 122.845C199.514 122.845 199.004 120.357 199.227 119.384C199.451 118.412 199.718 119.412 199.977 120.58C200.236 121.748 200.399 124.543 200.898 124.407C201.396 124.272 202.995 122.235 203.369 121.437C203.744 120.64 201.264 118.196 201.292 117.706C201.32 117.216 203.234 118.149 203.533 118.659C203.749 119.047 203.945 119.446 204.119 119.855C204.119 119.855 205.315 119.105 205.283 116.809C205.251 114.513 203.545 115.215 203.545 115.215Z" fill="#263238"/>
<path d="M194.041 120.6C195.265 119.089 197.063 117.044 198.574 116.068" stroke="#263238" stroke-linecap="round" stroke-linejoin="round"/>
<path d="M192.622 122.442C192.622 122.442 192.937 122.003 193.447 121.35" stroke="#263238" stroke-linecap="round" stroke-linejoin="round"/>
<path d="M199.371 116.442C199.371 116.442 201.189 119.01 201.524 121.653" stroke="#263238" stroke-linecap="round" stroke-linejoin="round"/>
<path d="M197.314 117.961C197.314 117.961 197.824 117.666 197.633 120.931" stroke="#263238" stroke-linecap="round" stroke-linejoin="round"/>
<path d="M198.641 114.916C198.641 114.916 199.678 113.991 199.132 112.157" stroke="#263238" stroke-linecap="round" stroke-linejoin="round"/>
<path d="M197.238 116.482L196.497 115.127" stroke="#263238" stroke-linecap="round" stroke-linejoin="round"/>
<path d="M195.679 117.866C195.679 117.866 193.327 116.088 191.856 116" stroke="#263238" stroke-linecap="round" stroke-linejoin="round"/>
<path d="M210.226 110.371C210.226 110.371 210.15 113.066 208.045 113.197C205.94 113.329 204.641 109.825 202.488 110.666C200.335 111.507 200.128 115.354 200.128 115.354C200.128 115.354 202.169 113.676 203.269 114.525C204.37 115.374 204.115 116.678 203.521 116.47C202.927 116.263 199.725 115.549 199.618 117.965C199.573 118.653 199.669 119.343 199.898 119.993C200.128 120.644 200.487 121.241 200.953 121.748C200.953 121.748 203.23 117.499 204.888 118.272C206.546 119.045 203.521 119.719 202.309 121.29C201.097 122.86 200.315 124.515 201.388 125.085C202.288 125.645 203.129 126.294 203.899 127.022C203.899 127.022 203.612 124.798 204.944 123.072C206.275 121.346 207.371 122.191 206.164 123.761C204.956 125.332 205.554 127.796 205.554 127.796C205.554 127.796 209.117 128.043 211.669 126.998C214.22 125.954 214.236 124.969 213.415 124.084C212.594 123.199 209.755 122.015 210.6 120.915C211.445 119.815 213.63 125.755 214.878 124.463C216.126 123.171 216.496 121.708 215.799 120.668L215.097 119.627C215.097 119.627 212.259 118.432 211.438 117.559C210.616 116.685 211.8 117.084 213.144 117.618C214.487 118.152 217.393 119.895 217.6 119.305C217.808 118.715 216.855 115.717 216.313 114.808C215.771 113.899 211.633 114.704 211.162 114.341C210.692 113.979 212.928 112.699 213.642 112.747C214.356 112.795 215.237 112.966 215.237 112.966C215.237 112.966 215.3 111.264 212.98 109.725C210.66 108.187 210.226 110.371 210.226 110.371Z" fill="#4CC1FF"/>
<path opacity="0.2" d="M210.226 110.371C210.226 110.371 210.15 113.066 208.045 113.197C205.94 113.329 204.641 109.825 202.488 110.666C200.335 111.507 200.128 115.354 200.128 115.354C200.128 115.354 202.169 113.676 203.269 114.525C204.37 115.374 204.115 116.678 203.521 116.47C202.927 116.263 199.725 115.549 199.618 117.965C199.573 118.653 199.669 119.343 199.898 119.993C200.128 120.644 200.487 121.241 200.953 121.748C200.953 121.748 203.23 117.499 204.888 118.272C206.546 119.045 203.521 119.719 202.309 121.29C201.097 122.86 200.315 124.515 201.388 125.085C202.288 125.645 203.129 126.294 203.899 127.022C203.899 127.022 203.612 124.798 204.944 123.072C206.275 121.346 207.371 122.191 206.164 123.761C204.956 125.332 205.554 127.796 205.554 127.796C205.554 127.796 209.117 128.043 211.669 126.998C214.22 125.954 214.236 124.969 213.415 124.084C212.594 123.199 209.755 122.015 210.6 120.915C211.445 119.815 213.63 125.755 214.878 124.463C216.126 123.171 216.496 121.708 215.799 120.668L215.097 119.627C215.097 119.627 212.259 118.432 211.438 117.559C210.616 116.685 211.8 117.084 213.144 117.618C214.487 118.152 217.393 119.895 217.6 119.305C217.808 118.715 216.855 115.717 216.313 114.808C215.771 113.899 211.633 114.704 211.162 114.341C210.692 113.979 212.928 112.699 213.642 112.747C214.356 112.795 215.237 112.966 215.237 112.966C215.237 112.966 215.3 111.264 212.98 109.725C210.66 108.187 210.226 110.371 210.226 110.371Z" fill="#263238"/>
<path d="M209.138 123.558C208.46 121.302 207.639 118.105 207.695 115.928" stroke="#263238" stroke-linecap="round" stroke-linejoin="round"/>
<path d="M210.015 126.229C210.015 126.229 209.791 125.619 209.484 124.662" stroke="#263238" stroke-linecap="round" stroke-linejoin="round"/>
<path d="M208.611 115.386C208.611 115.386 212.418 115.318 215.293 116.781" stroke="#263238" stroke-linecap="round" stroke-linejoin="round"/>
<path d="M208.731 118.48C208.731 118.48 208.779 117.77 211.92 120.19" stroke="#263238" stroke-linecap="round" stroke-linejoin="round"/>
<path d="M206.594 115.083C206.594 115.083 206.379 113.413 204.167 112.711" stroke="#263238" stroke-linecap="round" stroke-linejoin="round"/>
<path d="M207.196 117.551L205.334 117.367" stroke="#263238" stroke-linecap="round" stroke-linejoin="round"/>
<path d="M207.519 120.05C207.519 120.05 204.135 121.198 203.046 122.61" stroke="#263238" stroke-linecap="round" stroke-linejoin="round"/>
<path d="M187.643 128.31C187.643 128.31 198.35 135.39 198.167 162.792" stroke="#263238" stroke-width="2" stroke-linecap="round" stroke-linejoin="round"/>
<path d="M200.846 126.44C200.846 126.44 200.503 129.542 198.055 129.498C195.608 129.454 194.444 125.28 191.884 126.05C189.325 126.819 188.715 131.232 188.715 131.232C188.715 131.232 191.231 129.49 192.423 130.57C193.615 131.651 193.192 133.134 192.526 132.839C191.86 132.544 188.237 131.419 187.882 134.198C187.767 134.989 187.813 135.795 188.019 136.567C188.224 137.339 188.585 138.062 189.078 138.691C189.078 138.691 192.108 133.999 193.945 135.047C195.783 136.096 192.231 136.59 190.685 138.288C189.138 139.986 188.089 141.824 189.261 142.581C190.249 143.31 191.16 144.139 191.98 145.053C191.98 145.053 191.857 142.458 193.575 140.592C195.293 138.727 196.461 139.795 194.918 141.501C193.375 143.207 193.834 146.101 193.834 146.101C193.834 146.101 197.928 146.723 200.969 145.767C204.011 144.81 204.119 143.67 203.254 142.577C202.389 141.485 199.227 139.843 200.308 138.655C201.388 137.467 203.345 144.523 204.908 143.151C206.471 141.78 207.037 140.126 206.327 138.858L205.582 137.59C205.582 137.59 202.42 135.952 201.555 134.856C200.69 133.759 202.018 134.345 203.517 135.087C205.016 135.828 208.209 138.117 208.5 137.451C208.791 136.785 207.973 133.253 207.451 132.141C206.929 131.029 202.062 131.583 201.551 131.121C201.041 130.658 203.748 129.39 204.565 129.526C205.174 129.627 205.776 129.76 206.371 129.925C206.371 129.925 206.602 127.963 204.071 125.97C201.539 123.977 200.846 126.44 200.846 126.44Z" fill="#4CC1FF"/>
<path opacity="0.3" d="M200.846 126.44C200.846 126.44 200.503 129.542 198.055 129.498C195.608 129.454 194.444 125.28 191.884 126.05C189.325 126.819 188.715 131.232 188.715 131.232C188.715 131.232 191.231 129.49 192.423 130.57C193.615 131.651 193.192 133.134 192.526 132.839C191.86 132.544 188.237 131.419 187.882 134.198C187.767 134.989 187.813 135.795 188.019 136.567C188.224 137.339 188.585 138.062 189.078 138.691C189.078 138.691 192.108 133.999 193.945 135.047C195.783 136.096 192.231 136.59 190.685 138.288C189.138 139.986 188.089 141.824 189.261 142.581C190.249 143.31 191.16 144.139 191.98 145.053C191.98 145.053 191.857 142.458 193.575 140.592C195.293 138.727 196.461 139.795 194.918 141.501C193.375 143.207 193.834 146.101 193.834 146.101C193.834 146.101 197.928 146.723 200.969 145.767C204.011 144.81 204.119 143.67 203.254 142.577C202.389 141.485 199.227 139.843 200.308 138.655C201.388 137.467 203.345 144.523 204.908 143.151C206.471 141.78 207.037 140.126 206.327 138.858L205.582 137.59C205.582 137.59 202.42 135.952 201.555 134.856C200.69 133.759 202.018 134.345 203.517 135.087C205.016 135.828 208.209 138.117 208.5 137.451C208.791 136.785 207.973 133.253 207.451 132.141C206.929 131.029 202.062 131.583 201.551 131.121C201.041 130.658 203.748 129.39 204.565 129.526C205.174 129.627 205.776 129.76 206.371 129.925C206.371 129.925 206.602 127.963 204.071 125.97C201.539 123.977 200.846 126.44 200.846 126.44Z" fill="#263238"/>
<path d="M198.35 141.553C197.776 138.89 197.134 135.123 197.397 132.615" stroke="#263238" stroke-linecap="round" stroke-linejoin="round"/>
<path d="M199.108 144.718C199.108 144.718 198.908 143.992 198.641 142.86" stroke="#263238" stroke-linecap="round" stroke-linejoin="round"/>
<path d="M198.51 132.057C198.51 132.057 202.895 132.34 206.084 134.302" stroke="#263238" stroke-linecap="round" stroke-linejoin="round"/>
<path d="M198.354 135.645C198.354 135.645 198.478 134.848 201.874 137.917" stroke="#263238" stroke-linecap="round" stroke-linejoin="round"/>
<path d="M196.21 131.535C196.21 131.535 196.118 129.59 193.635 128.569" stroke="#263238" stroke-linecap="round" stroke-linejoin="round"/>
<path d="M196.672 134.437L194.543 134.051" stroke="#263238" stroke-linecap="round" stroke-linejoin="round"/>
<path d="M196.812 137.355C196.812 137.355 192.797 138.356 191.406 139.882" stroke="#263238" stroke-linecap="round" stroke-linejoin="round"/>
<path d="M191.817 149.908C191.817 149.908 198.713 155.17 199.439 162.976L198.008 136.841" stroke="#263238" stroke-width="2" stroke-linecap="round" stroke-linejoin="round"/>
<path d="M208.511 146.097C199.438 144.463 199.438 162.975 199.438 162.975" stroke="#263238" stroke-width="2" stroke-linecap="round" stroke-linejoin="round"/>
<path d="M200.527 162.792C200.527 162.792 195.265 124.499 210.493 124.499" stroke="#263238" stroke-width="2" stroke-linecap="round" stroke-linejoin="round"/>
<path d="M205.055 144.993C203.816 143.602 201.181 143.602 199.634 147.166C198.087 150.729 199.479 150.108 199.479 150.108C199.479 150.108 202.42 149.179 204.262 148.557C206.104 147.935 208.599 146.388 208.755 147.321C208.91 148.254 207.515 149.179 205.809 149.49C204.103 149.801 199.614 151.036 200.076 151.969C200.539 152.902 201.627 155.685 201.627 155.685C202.952 154.561 204.349 153.527 205.809 152.587C207.826 151.347 209.066 151.814 207.982 153.205C206.897 154.596 203.796 156.151 204.418 158.009C205.04 159.866 208.771 162.194 208.771 162.194C208.771 162.194 209.233 158.32 210.322 157.08C211.41 155.84 211.406 157.235 211.095 159.404C210.939 160.327 210.835 161.259 210.784 162.194L215.121 163.741C215.83 162.661 216.607 161.627 217.445 160.644L218.242 159.87C218.242 159.87 214.834 156.924 214.679 155.087C214.523 153.249 217.003 155.087 217.776 155.398C218.549 155.708 219.789 157.873 219.789 157.873C219.789 157.873 220.567 154.313 220.722 153.089L220.877 151.85C220.877 151.85 217.621 150.61 216.381 150.61C215.141 150.61 214.523 151.539 214.523 150.299C214.523 149.059 215.763 148.286 217.158 148.441C218.421 148.65 219.665 148.961 220.877 149.37C220.877 149.37 221.806 148.593 221.495 146.269C221.184 143.945 220.411 143.945 218.553 144.567C216.696 145.188 215.452 146.56 214.057 146.56C212.662 146.56 213.439 144.858 214.368 144.391C215.297 143.925 217.621 142.996 218.087 142.84C218.553 142.685 215.607 140.516 214.057 140.209C212.506 139.902 210.501 141.007 210.648 142.533C210.943 145.77 206.295 146.408 205.055 144.993Z" fill="#4CC1FF"/>
<path d="M215.029 160.947C215.077 161.413 215.109 161.883 215.125 162.35" stroke="#263238" stroke-linecap="round" stroke-linejoin="round"/>
<path d="M211.916 149.824C213.278 152.894 214.258 156.119 214.834 159.428" stroke="#263238" stroke-linecap="round" stroke-linejoin="round"/>
<path d="M211.358 148.581C210.593 146.93 210.015 145.926 210.015 145.926C210.853 145.522 211.548 144.873 212.008 144.064C212.371 143.331 212.902 142.695 213.559 142.207" stroke="#263238" stroke-linecap="round" stroke-linejoin="round"/>
<path d="M204.589 151.192C204.589 151.192 210.17 148.868 210.17 149.334" stroke="#263238" stroke-linecap="round" stroke-linejoin="round"/>
<path d="M213.267 148.25C213.267 148.25 215.747 147.01 217.915 147.01" stroke="#263238" stroke-linecap="round" stroke-linejoin="round"/>
<path d="M212.358 151.989C211.284 152.872 210.297 153.857 209.412 154.931C208.508 155.998 207.776 157.201 207.244 158.495" stroke="#263238" stroke-linecap="round" stroke-linejoin="round"/>
<path d="M214.041 152.587C214.041 152.587 217.298 151.658 219 153.205" stroke="#263238" stroke-linecap="round" stroke-linejoin="round"/>
<path d="M219.933 131.659C218.247 130.662 216.381 130.638 215.464 129.586C214.547 128.533 216.345 127.991 217.306 128.39C218.266 128.788 220.495 129.932 220.913 130.184C221.332 130.435 221.045 126.787 220.264 125.4C219.482 124.013 217.342 123.227 216.277 124.348C214.025 126.715 210.509 123.61 210.748 121.76C210.987 119.911 209.261 117.921 205.566 119.089C201.87 120.257 203.242 120.899 203.242 120.899C203.242 120.899 205.873 122.514 207.563 123.514C209.253 124.515 212.044 125.368 211.442 126.094C210.84 126.819 209.225 126.377 207.874 125.296C206.523 124.216 202.644 121.633 202.245 122.593C201.847 123.554 200.451 126.181 200.451 126.181C202.169 126.444 203.867 126.821 205.534 127.309C207.79 128.015 208.253 129.255 206.491 129.35C204.729 129.446 201.524 128.123 200.511 129.809C199.499 131.495 200.196 135.828 200.196 135.828C200.196 135.828 203.425 133.64 205.072 133.648C206.718 133.656 205.665 134.569 203.824 135.757C203.026 136.246 202.255 136.778 201.516 137.351L203.19 141.644C204.47 141.471 205.761 141.379 207.053 141.369L208.145 141.445C208.145 141.445 208.145 136.941 209.437 135.605C210.728 134.27 210.959 137.359 211.234 138.148C211.51 138.938 210.684 141.294 210.684 141.294C210.684 141.294 213.873 139.544 214.918 138.85L215.958 138.152C215.958 138.152 214.762 134.884 213.965 133.947C213.168 133.01 212.048 133.149 212.981 132.352C213.913 131.555 215.317 131.954 216.114 133.122C216.781 134.213 217.361 135.355 217.848 136.538C217.848 136.538 219.044 136.733 220.595 134.975C222.145 133.217 221.623 132.651 219.933 131.659ZM205.271 136.618C204.031 136 206.973 134.76 206.973 134.76C208.061 134.597 206.511 137.239 205.275 136.61L205.271 136.618ZM207.356 130.833C206.83 130.57 208.412 130.036 208.412 130.036C210.708 130.463 207.89 131.092 207.36 130.825L207.356 130.833Z" fill="#4CC1FF"/>
<path d="M205.239 139.767C204.917 140.11 204.586 140.441 204.246 140.759" stroke="#263238" stroke-linecap="round" stroke-linejoin="round"/>
<path d="M211.597 130.124C210.173 133.165 208.381 136.02 206.259 138.623" stroke="#263238" stroke-linecap="round" stroke-linejoin="round"/>
<path d="M212.171 128.888C212.917 127.226 213.295 126.129 213.295 126.129C214.152 126.507 215.104 126.613 216.022 126.432C216.813 126.226 217.643 126.209 218.442 126.385" stroke="#263238" stroke-linecap="round" stroke-linejoin="round"/>
<path d="M210.824 128.469C211.175 128.166 205.765 125.476 205.765 125.476" stroke="#263238" stroke-linecap="round" stroke-linejoin="round"/>
<path d="M213.674 130.112C213.674 130.112 216.237 131.172 217.66 132.811" stroke="#263238" stroke-linecap="round" stroke-linejoin="round"/>
<path d="M210.258 131.846C208.886 131.616 207.495 131.518 206.104 131.555C204.706 131.57 203.319 131.806 201.994 132.252" stroke="#263238" stroke-linecap="round" stroke-linejoin="round"/>
<path d="M210.907 133.54C210.907 133.54 213.742 135.39 213.698 137.69" stroke="#263238" stroke-linecap="round" stroke-linejoin="round"/>
<path d="M195.859 153.121C194.504 152.324 193.001 152.3 192.271 151.451C191.542 150.602 192.977 150.175 193.75 150.498C194.523 150.821 196.313 151.738 196.656 151.937C196.999 152.137 196.76 149.207 196.13 148.102C195.5 146.998 193.778 146.352 192.941 147.257C191.127 149.159 188.297 146.663 188.492 145.172C188.687 143.681 187.296 142.083 184.31 143.024C181.325 143.965 182.441 144.483 182.441 144.483C182.441 144.483 184.557 145.782 185.917 146.584C187.276 147.385 189.505 148.074 189.038 148.66C188.572 149.246 187.256 148.888 186.168 148.015C185.08 147.142 181.958 145.065 181.635 145.838C181.313 146.611 180.196 148.744 180.196 148.744C181.578 148.955 182.945 149.257 184.286 149.649C186.1 150.219 186.471 151.22 185.052 151.295C183.633 151.371 181.065 150.307 180.268 151.662C179.471 153.018 180.017 156.506 180.017 156.506C180.017 156.506 182.616 154.748 183.94 154.752C185.263 154.756 184.418 155.493 182.939 156.45C182.295 156.842 181.674 157.269 181.077 157.73L182.425 161.186C183.455 161.045 184.494 160.971 185.534 160.962L186.415 161.026C186.415 161.026 186.415 157.399 187.456 156.326C188.496 155.254 188.679 157.737 188.899 158.371C189.118 159.005 188.456 160.903 188.456 160.903C188.456 160.903 191.031 159.495 191.865 158.933L192.702 158.375C192.702 158.375 191.737 155.744 191.083 154.991C190.429 154.237 189.536 154.349 190.286 153.695C191.035 153.042 192.164 153.388 192.805 154.317C193.344 155.196 193.811 156.115 194.205 157.068C194.205 157.068 195.165 157.223 196.413 155.808C197.661 154.393 197.21 153.923 195.859 153.121ZM184.059 157.108C183.063 156.609 185.43 155.613 185.43 155.613C186.304 155.489 185.056 157.61 184.055 157.112L184.059 157.108ZM185.741 152.452C185.315 152.24 186.591 151.814 186.591 151.814C188.44 152.172 186.164 152.671 185.741 152.456V152.452Z" fill="#4CC1FF"/>
<path d="M184.055 159.651C183.796 159.926 183.529 160.193 183.258 160.448" stroke="#263238" stroke-linecap="round" stroke-linejoin="round"/>
<path d="M189.15 151.894C188.002 154.339 186.558 156.635 184.852 158.73" stroke="#263238" stroke-linecap="round" stroke-linejoin="round"/>
<path d="M189.612 150.897C190.21 149.561 190.517 148.677 190.517 148.677C191.206 148.98 191.971 149.065 192.71 148.92C193.346 148.754 194.013 148.74 194.655 148.88" stroke="#263238" stroke-linecap="round" stroke-linejoin="round"/>
<path d="M184.454 148.162C184.454 148.162 188.811 150.327 188.528 150.554" stroke="#263238" stroke-linecap="round" stroke-linejoin="round"/>
<path d="M190.832 151.882C190.832 151.882 192.893 152.735 194.021 154.05" stroke="#263238" stroke-linecap="round" stroke-linejoin="round"/>
<path d="M188.069 153.277C186.966 153.09 185.847 153.011 184.729 153.042C183.603 153.055 182.487 153.244 181.42 153.604" stroke="#263238" stroke-linecap="round" stroke-linejoin="round"/>
<path d="M188.592 154.64C188.592 154.64 190.876 156.127 190.832 157.981" stroke="#263238" stroke-linecap="round" stroke-linejoin="round"/>
<path d="M190.326 127.537C190.326 127.537 188.62 128.776 187.535 127.537C186.451 126.297 188.002 123.817 186.447 122.888C184.892 121.96 182.421 123.662 182.421 123.662C182.421 123.662 184.434 124.128 184.434 125.212C184.434 126.297 183.505 126.759 183.35 126.297C183.194 125.834 182.11 123.506 180.559 124.591C180.112 124.892 179.73 125.281 179.438 125.734C179.145 126.187 178.948 126.694 178.857 127.226C178.857 127.226 182.572 126.604 182.883 127.999C183.194 129.394 181.332 127.843 179.786 127.843C178.239 127.843 176.84 128.154 176.995 129.083C177.08 129.908 177.08 130.738 176.995 131.563C177.798 130.811 178.843 130.372 179.941 130.323C181.643 130.323 181.643 131.407 180.097 131.407C178.55 131.407 177.306 132.958 177.306 132.958C177.306 132.958 178.857 135.282 180.715 136.366C182.572 137.451 183.194 136.988 183.35 136.055C183.505 135.123 182.883 132.803 183.967 132.803C185.052 132.803 182.421 136.988 183.812 137.14C185.203 137.291 186.292 136.833 186.602 135.9L186.913 134.971C186.913 134.971 186.292 132.647 186.447 131.718C186.602 130.789 186.913 131.718 187.22 132.803C187.527 133.887 187.842 136.522 188.305 136.366C188.767 136.211 190.166 134.198 190.477 133.424C190.788 132.651 188.305 130.478 188.305 130.016C188.305 129.554 190.166 130.323 190.477 130.789C190.701 131.14 190.908 131.502 191.095 131.874C191.095 131.874 192.179 131.1 192.024 128.928C191.868 126.755 190.326 127.537 190.326 127.537Z" fill="#4CC1FF"/>
<path d="M181.663 133.153C182.736 131.658 184.322 129.625 185.698 128.621" stroke="#263238" stroke-linecap="round" stroke-linejoin="round"/>
<path d="M180.408 134.971C180.408 134.971 180.683 134.541 181.125 133.895" stroke="#263238" stroke-linecap="round" stroke-linejoin="round"/>
<path d="M186.447 128.928C186.447 128.928 188.305 131.252 188.771 133.732" stroke="#263238" stroke-linecap="round" stroke-linejoin="round"/>
<path d="M184.594 130.463C184.594 130.463 185.056 130.152 185.056 133.253" stroke="#263238" stroke-linecap="round" stroke-linejoin="round"/>
<path d="M185.678 127.537C185.678 127.537 186.607 126.604 185.985 124.902" stroke="#263238" stroke-linecap="round" stroke-linejoin="round"/>
<path d="M184.438 129.083L183.661 127.844" stroke="#263238" stroke-linecap="round" stroke-linejoin="round"/>
<path d="M183.043 130.463C183.043 130.463 180.718 128.912 179.323 128.912" stroke="#263238" stroke-linecap="round" stroke-linejoin="round"/>
<path d="M205.972 162.246H193.993V179.487H205.972V162.246Z" fill="#263238" stroke="#263238" stroke-width="2" stroke-linecap="round" stroke-linejoin="round"/>
<path d="M98.0767 29.7584C98.0767 29.7584 98.2202 24.6638 98.0408 20.2827C97.8614 15.9017 98.2242 6.50977 98.2242 6.50977" stroke="#263238" stroke-miterlimit="10"/>
<path d="M98.1406 12.0349L96.1514 10.4683" stroke="#263238" stroke-miterlimit="10"/>
<path d="M98.1167 13.1111L98.8263 11.967" stroke="#263238" stroke-miterlimit="10"/>
<path d="M97.957 17.6437L99.723 16.1807" stroke="#263238" stroke-miterlimit="10"/>
<path d="M98.2241 8.43528L97.2913 7.58618" stroke="#263238" stroke-miterlimit="10"/>
<path d="M97.941 18.4373L96.7729 17.1855" stroke="#263238" stroke-miterlimit="10"/>
<path d="M98.0407 23.3563L95.613 21.1399" stroke="#263238" stroke-miterlimit="10"/>
<path d="M98.1045 26.087C98.7232 25.8471 99.3251 25.5661 99.9063 25.2458" stroke="#263238" stroke-miterlimit="10"/>
<path d="M96.7531 12.8204C95.7764 12.0669 92.4996 12.1985 91.8698 13.7651C91.2399 15.3318 93.2451 17.8871 95.1585 17.7077C95.912 17.6359 96.2389 17.5841 96.5339 17.1615L93.843 14.5305L96.7571 16.8745C96.839 16.7219 96.9057 16.5617 96.9564 16.3961C96.9883 16.2805 97.0202 16.153 97.0441 16.0214C97.2474 15.0846 97.674 13.5259 96.7531 12.8204Z" fill="#4CC1FF"/>
<path d="M103.095 11.0024V11.0583C102.832 12.2263 101.501 12.888 100.373 12.7883C100.216 12.7751 100.062 12.747 99.9103 12.7046C99.6467 13.122 99.4836 13.5949 99.4338 14.086C99.3839 14.5772 99.4488 15.0732 99.6233 15.535C99.6704 15.667 99.7333 15.7928 99.8107 15.9097C100.142 15.6386 103.681 12.6169 103.681 12.6169L100.006 16.1568C101.114 17.3528 103.713 17.1813 104.618 14.9848C105.523 12.7883 104.371 11.3174 103.095 11.0024Z" fill="#4CC1FF"/>
<path d="M101.294 6.91631C99.3883 6.51767 97.6821 7.36278 97.7061 9.35199C97.7166 9.79053 97.8168 10.2223 98.0006 10.6206C98.1843 11.0189 98.4477 11.3754 98.7744 11.6681L100.74 8.98923L99.0893 11.9113C99.4592 12.1635 99.8873 12.3171 100.333 12.3577C101.457 12.4534 102.793 11.7917 103.056 10.6237C103.331 9.3201 103.199 7.33488 101.294 6.91631Z" fill="#4CC1FF"/>
<path d="M99.0694 0C99.0694 0 98.8741 0.0597964 97.6543 0.653769C96.9401 1.04755 96.4109 1.70807 96.1823 2.49093C95.9537 3.27378 96.0443 4.1153 96.4344 4.83151C96.7723 5.50065 97.3569 6.01236 98.0649 6.25863L98.5552 1.51882L98.3479 6.32242C98.4407 6.33196 98.5342 6.33196 98.6269 6.32242C99.4242 6.24269 100.672 5.29393 100.792 3.35255C100.911 1.41118 99.0694 0 99.0694 0Z" fill="#4CC1FF"/>
<path d="M93.5002 4.30915L97.1796 7.25111C97.216 7.12156 97.2281 6.98643 97.2155 6.85247C97.0441 5.17021 95.3658 4.19355 94.2576 3.84275C93.1494 3.49194 92.38 4.11781 93.0936 5.72831C93.8071 7.33881 95.6768 8.12014 96.5099 7.87698C96.7079 7.8282 96.8861 7.71963 97.0202 7.56604L93.5002 4.30915Z" fill="#4CC1FF"/>
<path d="M96.0315 8.08035C95.4674 8.03967 94.9199 7.87142 94.4303 7.5883C93.9407 7.30517 93.5218 6.91456 93.2051 6.44593C92.8143 6.40885 92.4245 6.52614 92.1191 6.77272C91.8137 7.01931 91.6168 7.3756 91.5707 7.76543C91.196 9.51944 92.4637 11.3532 94.2934 11.1299C94.8681 11.1 95.4134 10.8669 95.8322 10.4722L92.5633 7.48638L96.0634 10.1533C96.1319 10.0302 96.1753 9.89467 96.1909 9.75464C96.304 9.19303 96.2485 8.61053 96.0315 8.08035Z" fill="#4CC1FF"/>
<path d="M96.0117 17.8352C95.7145 17.9626 95.3976 18.0381 95.0749 18.0585C93.879 18.1701 92.6592 17.2333 92.0532 16.1331C91.6974 16.1571 91.3599 16.2998 91.0946 16.5383C90.8294 16.7767 90.6518 17.0973 90.5902 17.4486C90.2275 19.5016 92.129 22.2083 94.0504 21.7778C94.5499 21.6806 95.0124 21.4459 95.3859 21.1001L91.1922 17.0659L95.629 20.837C95.8826 20.5117 96.0462 20.1254 96.1034 19.7168C96.3136 19.1008 96.2808 18.4279 96.0117 17.8352Z" fill="#4CC1FF"/>
<path d="M104.451 22.0327C103.04 20.3983 101.361 21.8613 101.361 21.8613C101.361 21.8613 100.333 22.2001 99.9422 23.6592C99.8225 24.1018 99.8406 24.5704 99.994 25.0026L104.236 22.531L100.098 25.2338C100.496 25.9673 101.325 26.4297 102.489 26.0909C104.347 25.5806 105.858 23.6791 104.451 22.0327Z" fill="#4CC1FF"/>
<path d="M100.935 28.2197H95.063V36.914H100.935V28.2197Z" fill="#263238"/>
<path d="M165.746 36.8425H88.2981V180.046H165.746V36.8425Z" fill="#4CC1FF" stroke="#263238" stroke-miterlimit="10"/>
<path d="M154.823 38.6562H89.9084V177.865H154.823V38.6562Z" fill="#263238" stroke="#263238" stroke-linecap="round" stroke-linejoin="round"/>
<path d="M154.823 60.2463H89.9084V62.2993H154.823V60.2463Z" fill="#4CC1FF" stroke="#263238" stroke-miterlimit="10"/>
<path d="M154.823 83.9814H89.9084V86.0344H154.823V83.9814Z" fill="#4CC1FF" stroke="#263238" stroke-miterlimit="10"/>
<path d="M133.902 38.6799H132.523V60.2423H133.902V38.6799Z" fill="#4CC1FF" stroke="#263238" stroke-miterlimit="10"/>
<path d="M111.834 38.6799H110.454V60.2423H111.834V38.6799Z" fill="#4CC1FF" stroke="#263238" stroke-miterlimit="10"/>
<path d="M133.902 86.0583H132.523V107.621H133.902V86.0583Z" fill="#4CC1FF" stroke="#263238" stroke-miterlimit="10"/>
<path d="M111.834 86.0583H110.454V107.621H111.834V86.0583Z" fill="#4CC1FF" stroke="#263238" stroke-miterlimit="10"/>
<path d="M122.76 62.415H121.381V83.9774H122.76V62.415Z" fill="#4CC1FF" stroke="#263238" stroke-miterlimit="10"/>
<path d="M154.823 107.625H89.9084V109.678H154.823V107.625Z" fill="#4CC1FF" stroke="#263238" stroke-miterlimit="10"/>
<path d="M154.823 131.28H89.9084V178.59H154.823V131.28Z" fill="#4CC1FF" stroke="#263238" stroke-miterlimit="10"/>
<path d="M122.76 109.713H121.381V131.276H122.76V109.713Z" fill="#4CC1FF" stroke="#263238" stroke-miterlimit="10"/>
<path d="M156.413 36.8303V180.014L165.749 180.045V36.8303H156.413Z" fill="#263238" stroke="#263238" stroke-linecap="round" stroke-linejoin="round"/>
<path d="M138.192 40.3542H134.859V60.1945H138.192V40.3542Z" fill="white" stroke="#263238" stroke-miterlimit="10"/>
<path d="M138.192 55.9331H134.859V57.5596H138.192V55.9331Z" fill="white" stroke="#263238" stroke-miterlimit="10"/>
<path d="M138.192 42.3674H134.859V43.9939H138.192V42.3674Z" fill="white" stroke="#263238" stroke-miterlimit="10"/>
<path d="M141.6 40.3542H138.267V60.1945H141.6V40.3542Z" fill="white" stroke="#263238" stroke-miterlimit="10"/>
<path d="M141.6 55.9331H138.267V57.5596H141.6V55.9331Z" fill="white" stroke="#263238" stroke-miterlimit="10"/>
<path d="M141.6 42.3674H138.267V43.9939H141.6V42.3674Z" fill="white" stroke="#263238" stroke-miterlimit="10"/>
<path d="M145.012 40.3542H141.68V60.1945H145.012V40.3542Z" fill="white" stroke="#263238" stroke-miterlimit="10"/>
<path d="M145.012 55.9331H141.68V57.5596H145.012V55.9331Z" fill="white" stroke="#263238" stroke-miterlimit="10"/>
<path d="M145.012 42.3674H141.68V43.9939H145.012V42.3674Z" fill="white" stroke="#263238" stroke-miterlimit="10"/>
<path d="M148.421 40.3542H145.088V60.1945H148.421V40.3542Z" fill="white" stroke="#263238" stroke-miterlimit="10"/>
<path d="M153.974 40.3542H148.393V60.1945H153.974V40.3542Z" fill="white" stroke="#263238" stroke-miterlimit="10"/>
<path d="M148.421 55.9331H145.088V57.5596H148.421V55.9331Z" fill="white" stroke="#263238" stroke-miterlimit="10"/>
<path d="M148.421 42.3674H145.088V43.9939H148.421V42.3674Z" fill="white" stroke="#263238" stroke-miterlimit="10"/>
<path d="M115.896 40.3542H112.563V60.1945H115.896V40.3542Z" fill="white" stroke="#263238" stroke-miterlimit="10"/>
<path d="M115.896 55.9331H112.563V57.5596H115.896V55.9331Z" fill="white" stroke="#263238" stroke-miterlimit="10"/>
<path d="M115.896 42.3674H112.563V43.9939H115.896V42.3674Z" fill="white" stroke="#263238" stroke-miterlimit="10"/>
<path d="M119.304 40.3542H115.971V60.1945H119.304V40.3542Z" fill="white" stroke="#263238" stroke-miterlimit="10"/>
<path d="M119.304 55.9331H115.971V57.5596H119.304V55.9331Z" fill="white" stroke="#263238" stroke-miterlimit="10"/>
<path d="M119.304 42.3674H115.971V43.9939H119.304V42.3674Z" fill="white" stroke="#263238" stroke-miterlimit="10"/>
<path d="M122.716 40.3542H119.384V60.1945H122.716V40.3542Z" fill="white" stroke="#263238" stroke-miterlimit="10"/>
<path d="M122.716 55.9331H119.384V57.5596H122.716V55.9331Z" fill="white" stroke="#263238" stroke-miterlimit="10"/>
<path d="M122.716 42.3674H119.384V43.9939H122.716V42.3674Z" fill="white" stroke="#263238" stroke-miterlimit="10"/>
<path d="M126.125 40.3542H122.792V60.1945H126.125V40.3542Z" fill="white" stroke="#263238" stroke-miterlimit="10"/>
<path d="M131.678 40.3542H126.097V60.1945H131.678V40.3542Z" fill="white" stroke="#263238" stroke-miterlimit="10"/>
<path d="M126.125 55.9331H122.792V57.5596H126.125V55.9331Z" fill="white" stroke="#263238" stroke-miterlimit="10"/>
<path d="M126.125 42.3674H122.792V43.9939H126.125V42.3674Z" fill="white" stroke="#263238" stroke-miterlimit="10"/>
<path d="M115.896 87.8042H112.563V107.644H115.896V87.8042Z" fill="white" stroke="#263238" stroke-miterlimit="10"/>
<path d="M115.896 103.383H112.563V105.009H115.896V103.383Z" fill="white" stroke="#263238" stroke-miterlimit="10"/>
<path d="M115.896 89.8213H112.563V91.4477H115.896V89.8213Z" fill="white" stroke="#263238" stroke-miterlimit="10"/>
<path d="M119.304 87.8042H115.971V107.644H119.304V87.8042Z" fill="white" stroke="#263238" stroke-miterlimit="10"/>
<path d="M119.304 103.383H115.971V105.009H119.304V103.383Z" fill="white" stroke="#263238" stroke-miterlimit="10"/>
<path d="M119.304 89.8213H115.971V91.4477H119.304V89.8213Z" fill="white" stroke="#263238" stroke-miterlimit="10"/>
<path d="M122.716 87.8042H119.384V107.644H122.716V87.8042Z" fill="white" stroke="#263238" stroke-miterlimit="10"/>
<path d="M122.716 103.383H119.384V105.009H122.716V103.383Z" fill="white" stroke="#263238" stroke-miterlimit="10"/>
<path d="M122.716 89.8213H119.384V91.4477H122.716V89.8213Z" fill="white" stroke="#263238" stroke-miterlimit="10"/>
<path d="M126.125 87.8042H122.792V107.644H126.125V87.8042Z" fill="white" stroke="#263238" stroke-miterlimit="10"/>
<path d="M131.678 87.8042H126.097V107.644H131.678V87.8042Z" fill="white" stroke="#263238" stroke-miterlimit="10"/>
<path d="M126.125 103.383H122.792V105.009H126.125V103.383Z" fill="white" stroke="#263238" stroke-miterlimit="10"/>
<path d="M126.125 89.8213H122.792V91.4477H126.125V89.8213Z" fill="white" stroke="#263238" stroke-miterlimit="10"/>
<path d="M137.904 87.8042H134.572V107.644H137.904V87.8042Z" fill="white" stroke="#263238" stroke-miterlimit="10"/>
<path d="M137.904 103.383H134.572V105.009H137.904V103.383Z" fill="white" stroke="#263238" stroke-miterlimit="10"/>
<path d="M137.904 89.8213H134.572V91.4477H137.904V89.8213Z" fill="white" stroke="#263238" stroke-miterlimit="10"/>
<path d="M141.317 87.8042H137.984V107.644H141.317V87.8042Z" fill="white" stroke="#263238" stroke-miterlimit="10"/>
<path d="M141.317 103.383H137.984V105.009H141.317V103.383Z" fill="white" stroke="#263238" stroke-miterlimit="10"/>
<path d="M141.317 89.8213H137.984V91.4477H141.317V89.8213Z" fill="white" stroke="#263238" stroke-miterlimit="10"/>
<path d="M144.725 87.8042H141.393V107.644H144.725V87.8042Z" fill="white" stroke="#263238" stroke-miterlimit="10"/>
<path d="M144.725 103.383H141.393V105.009H144.725V103.383Z" fill="white" stroke="#263238" stroke-miterlimit="10"/>
<path d="M144.725 89.8213H141.393V91.4477H144.725V89.8213Z" fill="white" stroke="#263238" stroke-miterlimit="10"/>
<path d="M148.138 87.8042H144.805V107.644H148.138V87.8042Z" fill="white" stroke="#263238" stroke-miterlimit="10"/>
<path d="M153.687 87.8042H148.106V107.644H153.687V87.8042Z" fill="white" stroke="#263238" stroke-miterlimit="10"/>
<path d="M148.138 103.383H144.805V105.009H148.138V103.383Z" fill="white" stroke="#263238" stroke-miterlimit="10"/>
<path d="M148.138 89.8213H144.805V91.4477H148.138V89.8213Z" fill="white" stroke="#263238" stroke-miterlimit="10"/>
<path d="M94.0262 87.8042H90.6936V107.644H94.0262V87.8042Z" fill="white" stroke="#263238" stroke-miterlimit="10"/>
<path d="M94.0262 103.383H90.6936V105.009H94.0262V103.383Z" fill="white" stroke="#263238" stroke-miterlimit="10"/>
<path d="M94.0262 89.8213H90.6936V91.4477H94.0262V89.8213Z" fill="white" stroke="#263238" stroke-miterlimit="10"/>
<path d="M97.4388 87.8042H94.1062V107.644H97.4388V87.8042Z" fill="white" stroke="#263238" stroke-miterlimit="10"/>
<path d="M97.4388 103.383H94.1062V105.009H97.4388V103.383Z" fill="white" stroke="#263238" stroke-miterlimit="10"/>
<path d="M97.4388 89.8213H94.1062V91.4477H97.4388V89.8213Z" fill="white" stroke="#263238" stroke-miterlimit="10"/>
<path d="M100.847 87.8042H97.5144V107.644H100.847V87.8042Z" fill="white" stroke="#263238" stroke-miterlimit="10"/>
<path d="M100.847 103.383H97.5144V105.009H100.847V103.383Z" fill="white" stroke="#263238" stroke-miterlimit="10"/>
<path d="M100.847 89.8213H97.5144V91.4477H100.847V89.8213Z" fill="white" stroke="#263238" stroke-miterlimit="10"/>
<path d="M104.259 87.8042H100.927V107.644H104.259V87.8042Z" fill="white" stroke="#263238" stroke-miterlimit="10"/>
<path d="M109.808 87.8042H104.228V107.644H109.808V87.8042Z" fill="white" stroke="#263238" stroke-miterlimit="10"/>
<path d="M104.259 103.383H100.927V105.009H104.259V103.383Z" fill="white" stroke="#263238" stroke-miterlimit="10"/>
<path d="M104.259 89.8213H100.927V91.4477H104.259V89.8213Z" fill="white" stroke="#263238" stroke-miterlimit="10"/>
<path d="M93.5997 40.3542H90.2671V60.1945H93.5997V40.3542Z" fill="white" stroke="#263238" stroke-miterlimit="10"/>
<path d="M93.5997 55.9331H90.2671V57.5596H93.5997V55.9331Z" fill="white" stroke="#263238" stroke-miterlimit="10"/>
<path d="M93.5997 42.3674H90.2671V43.9939H93.5997V42.3674Z" fill="white" stroke="#263238" stroke-miterlimit="10"/>
<path d="M97.0082 40.3542H93.6755V60.1945H97.0082V40.3542Z" fill="white" stroke="#263238" stroke-miterlimit="10"/>
<path d="M97.0082 55.9331H93.6755V57.5596H97.0082V55.9331Z" fill="white" stroke="#263238" stroke-miterlimit="10"/>
<path d="M97.0082 42.3674H93.6755V43.9939H97.0082V42.3674Z" fill="white" stroke="#263238" stroke-miterlimit="10"/>
<path d="M100.421 40.3542H97.0879V60.1945H100.421V40.3542Z" fill="white" stroke="#263238" stroke-miterlimit="10"/>
<path d="M100.421 55.9331H97.0879V57.5596H100.421V55.9331Z" fill="white" stroke="#263238" stroke-miterlimit="10"/>
<path d="M100.421 42.3674H97.0879V43.9939H100.421V42.3674Z" fill="white" stroke="#263238" stroke-miterlimit="10"/>
<path d="M103.829 40.3542H100.496V60.1945H103.829V40.3542Z" fill="white" stroke="#263238" stroke-miterlimit="10"/>
<path d="M109.382 40.3542H103.801V60.1945H109.382V40.3542Z" fill="white" stroke="#263238" stroke-miterlimit="10"/>
<path d="M103.829 55.9331H100.496V57.5596H103.829V55.9331Z" fill="white" stroke="#263238" stroke-miterlimit="10"/>
<path d="M103.829 42.3674H100.496V43.9939H103.829V42.3674Z" fill="white" stroke="#263238" stroke-miterlimit="10"/>
<path d="M103.462 63.9976H100.129V83.8378H103.462V63.9976Z" fill="white" stroke="#263238" stroke-miterlimit="10"/>
<path d="M103.462 79.5764H100.129V81.2029H103.462V79.5764Z" fill="white" stroke="#263238" stroke-miterlimit="10"/>
<path d="M103.462 66.0146H100.129V67.6411H103.462V66.0146Z" fill="white" stroke="#263238" stroke-miterlimit="10"/>
<path d="M100.173 63.9976H96.8406V83.8378H100.173V63.9976Z" fill="white" stroke="#263238" stroke-miterlimit="10"/>
<path d="M100.173 79.5764H96.8406V81.2029H100.173V79.5764Z" fill="white" stroke="#263238" stroke-miterlimit="10"/>
<path d="M100.173 66.0146H96.8406V67.6411H100.173V66.0146Z" fill="white" stroke="#263238" stroke-miterlimit="10"/>
<path d="M96.8846 63.9976H93.552V83.8378H96.8846V63.9976Z" fill="white" stroke="#263238" stroke-miterlimit="10"/>
<path d="M96.8846 79.5764H93.552V81.2029H96.8846V79.5764Z" fill="white" stroke="#263238" stroke-miterlimit="10"/>
<path d="M96.8846 66.0146H93.552V67.6411H96.8846V66.0146Z" fill="white" stroke="#263238" stroke-miterlimit="10"/>
<path d="M93.5997 63.9976H90.2671V83.8378H93.5997V63.9976Z" fill="white" stroke="#263238" stroke-miterlimit="10"/>
<path d="M93.5997 79.5764H90.2671V81.2029H93.5997V79.5764Z" fill="white" stroke="#263238" stroke-miterlimit="10"/>
<path d="M93.5997 66.0146H90.2671V67.6411H93.5997V66.0146Z" fill="white" stroke="#263238" stroke-miterlimit="10"/>
<path d="M106.87 63.9976H103.538V83.8378H106.87V63.9976Z" fill="white" stroke="#263238" stroke-miterlimit="10"/>
<path d="M106.87 79.5764H103.538V81.2029H106.87V79.5764Z" fill="white" stroke="#263238" stroke-miterlimit="10"/>
<path d="M106.87 66.0146H103.538V67.6411H106.87V66.0146Z" fill="white" stroke="#263238" stroke-miterlimit="10"/>
<path d="M110.279 63.9976H106.946V83.8378H110.279V63.9976Z" fill="white" stroke="#263238" stroke-miterlimit="10"/>
<path d="M110.279 79.5764H106.946V81.2029H110.279V79.5764Z" fill="white" stroke="#263238" stroke-miterlimit="10"/>
<path d="M110.279 66.0146H106.946V67.6411H110.279V66.0146Z" fill="white" stroke="#263238" stroke-miterlimit="10"/>
<path d="M113.691 63.9976H110.359V83.8378H113.691V63.9976Z" fill="white" stroke="#263238" stroke-miterlimit="10"/>
<path d="M119.244 63.9976H113.663V83.8378H119.244V63.9976Z" fill="white" stroke="#263238" stroke-miterlimit="10"/>
<path d="M113.691 79.5764H110.359V81.2029H113.691V79.5764Z" fill="white" stroke="#263238" stroke-miterlimit="10"/>
<path d="M113.691 66.0146H110.359V67.6411H113.691V66.0146Z" fill="white" stroke="#263238" stroke-miterlimit="10"/>
<path d="M127.157 63.9976H123.825V83.8378H127.157V63.9976Z" fill="white" stroke="#263238" stroke-miterlimit="10"/>
<path d="M127.157 79.5764H123.825V81.2029H127.157V79.5764Z" fill="white" stroke="#263238" stroke-miterlimit="10"/>
<path d="M127.157 66.0146H123.825V67.6411H127.157V66.0146Z" fill="white" stroke="#263238" stroke-miterlimit="10"/>
<path d="M130.569 63.9976H127.237V83.8378H130.569V63.9976Z" fill="white" stroke="#263238" stroke-miterlimit="10"/>
<path d="M130.569 79.5764H127.237V81.2029H130.569V79.5764Z" fill="white" stroke="#263238" stroke-miterlimit="10"/>
<path d="M130.569 66.0146H127.237V67.6411H130.569V66.0146Z" fill="white" stroke="#263238" stroke-miterlimit="10"/>
<path d="M137.393 63.9927L134.286 65.3044L142.099 83.8101L145.206 82.4983L137.393 63.9927Z" fill="white" stroke="#263238" stroke-miterlimit="10"/>
<path d="M143.529 78.522L140.422 79.8337L141.062 81.3505L144.169 80.0387L143.529 78.522Z" fill="white" stroke="#263238" stroke-miterlimit="10"/>
<path d="M138.188 65.8733L135.081 67.1851L135.721 68.7018L138.828 67.39L138.188 65.8733Z" fill="white" stroke="#263238" stroke-miterlimit="10"/>
<path d="M142.102 83.802H149.059L152.188 82.4984L145.208 82.4905L142.102 83.802Z" fill="white" stroke="#263238" stroke-miterlimit="10"/>
<path d="M137.394 63.9856H143.928L152.188 82.4984L145.207 82.4904L137.394 63.9856Z" fill="white" stroke="#263238" stroke-miterlimit="10"/>
<path d="M133.858 63.9976H130.526V83.8378H133.858V63.9976Z" fill="white" stroke="#263238" stroke-miterlimit="10"/>
<path d="M133.858 79.5764H130.526V81.2029H133.858V79.5764Z" fill="white" stroke="#263238" stroke-miterlimit="10"/>
<path d="M133.858 66.0146H130.526V67.6411H133.858V66.0146Z" fill="white" stroke="#263238" stroke-miterlimit="10"/>
<path d="M133.858 63.9976H137.394L134.285 65.2971L142.102 83.8019H133.858V63.9976Z" fill="white" stroke="#263238" stroke-miterlimit="10"/>
<path d="M103.462 111.364H100.129V131.204H103.462V111.364Z" fill="white" stroke="#263238" stroke-miterlimit="10"/>
<path d="M103.462 126.943H100.129V128.569H103.462V126.943Z" fill="white" stroke="#263238" stroke-miterlimit="10"/>
<path d="M103.462 113.377H100.129V115.003H103.462V113.377Z" fill="white" stroke="#263238" stroke-miterlimit="10"/>
<path d="M100.173 111.364H96.8406V131.204H100.173V111.364Z" fill="white" stroke="#263238" stroke-miterlimit="10"/>
<path d="M100.173 126.943H96.8406V128.569H100.173V126.943Z" fill="white" stroke="#263238" stroke-miterlimit="10"/>
<path d="M100.173 113.377H96.8406V115.003H100.173V113.377Z" fill="white" stroke="#263238" stroke-miterlimit="10"/>
<path d="M96.8846 111.364H93.552V131.204H96.8846V111.364Z" fill="white" stroke="#263238" stroke-miterlimit="10"/>
<path d="M96.8846 126.943H93.552V128.569H96.8846V126.943Z" fill="white" stroke="#263238" stroke-miterlimit="10"/>
<path d="M96.8846 113.377H93.552V115.003H96.8846V113.377Z" fill="white" stroke="#263238" stroke-miterlimit="10"/>
<path d="M93.5997 111.364H90.2671V131.204H93.5997V111.364Z" fill="white" stroke="#263238" stroke-miterlimit="10"/>
<path d="M93.5997 126.943H90.2671V128.569H93.5997V126.943Z" fill="white" stroke="#263238" stroke-miterlimit="10"/>
<path d="M93.5997 113.377H90.2671V115.003H93.5997V113.377Z" fill="white" stroke="#263238" stroke-miterlimit="10"/>
<path d="M106.87 111.364H103.538V131.204H106.87V111.364Z" fill="white" stroke="#263238" stroke-miterlimit="10"/>
<path d="M106.87 126.943H103.538V128.569H106.87V126.943Z" fill="white" stroke="#263238" stroke-miterlimit="10"/>
<path d="M106.87 113.377H103.538V115.003H106.87V113.377Z" fill="white" stroke="#263238" stroke-miterlimit="10"/>
<path d="M110.279 111.364H106.946V131.204H110.279V111.364Z" fill="white" stroke="#263238" stroke-miterlimit="10"/>
<path d="M110.279 126.943H106.946V128.569H110.279V126.943Z" fill="white" stroke="#263238" stroke-miterlimit="10"/>
<path d="M110.279 113.377H106.946V115.003H110.279V113.377Z" fill="white" stroke="#263238" stroke-miterlimit="10"/>
<path d="M113.691 111.364H110.359V131.204H113.691V111.364Z" fill="white" stroke="#263238" stroke-miterlimit="10"/>
<path d="M119.244 111.364H113.663V131.204H119.244V111.364Z" fill="white" stroke="#263238" stroke-miterlimit="10"/>
<path d="M113.691 126.943H110.359V128.569H113.691V126.943Z" fill="white" stroke="#263238" stroke-miterlimit="10"/>
<path d="M113.691 113.377H110.359V115.003H113.691V113.377Z" fill="white" stroke="#263238" stroke-miterlimit="10"/>
<path d="M127.157 111.364H123.825V131.204H127.157V111.364Z" fill="white" stroke="#263238" stroke-miterlimit="10"/>
<path d="M127.157 126.943H123.825V128.569H127.157V126.943Z" fill="white" stroke="#263238" stroke-miterlimit="10"/>
<path d="M127.157 113.377H123.825V115.003H127.157V113.377Z" fill="white" stroke="#263238" stroke-miterlimit="10"/>
<path d="M130.569 111.364H127.237V131.204H130.569V111.364Z" fill="white" stroke="#263238" stroke-miterlimit="10"/>
<path d="M130.569 126.943H127.237V128.569H130.569V126.943Z" fill="white" stroke="#263238" stroke-miterlimit="10"/>
<path d="M130.569 113.377H127.237V115.003H130.569V113.377Z" fill="white" stroke="#263238" stroke-miterlimit="10"/>
<path d="M137.39 111.357L134.283 112.668L142.096 131.174L145.203 129.862L137.39 111.357Z" fill="white" stroke="#263238" stroke-miterlimit="10"/>
<path d="M143.447 125.533L140.344 126.848L140.987 128.363L144.089 127.048L143.447 125.533Z" fill="white" stroke="#263238" stroke-width="0.99925" stroke-miterlimit="10"/>
<path d="M138.185 113.237L135.078 114.549L135.719 116.066L138.825 114.754L138.185 113.237Z" fill="white" stroke="#263238" stroke-miterlimit="10"/>
<path d="M142.102 131.168H149.059L152.188 129.865L145.208 129.853L142.102 131.168Z" fill="white" stroke="#263238" stroke-miterlimit="10"/>
<path d="M137.394 111.348H143.928L152.188 129.865L145.207 129.853L137.394 111.348Z" fill="white" stroke="#263238" stroke-miterlimit="10"/>
<path d="M133.858 111.364H130.526V131.204H133.858V111.364Z" fill="white" stroke="#263238" stroke-miterlimit="10"/>
<path d="M133.858 126.943H130.526V128.569H133.858V126.943Z" fill="white" stroke="#263238" stroke-miterlimit="10"/>
<path d="M133.858 113.377H130.526V115.003H133.858V113.377Z" fill="white" stroke="#263238" stroke-miterlimit="10"/>
<path d="M133.858 111.364H137.394L134.285 112.659L142.102 131.168H133.858V111.364Z" fill="white" stroke="#263238" stroke-miterlimit="10"/>
<path d="M121.381 131.276V177.797" stroke="#263238" stroke-miterlimit="10"/>
<path d="M90.4346 137.036H154.807" stroke="#263238" stroke-miterlimit="10"/>
<path d="M103.646 140.971V149.406" stroke="#263238" stroke-width="2" stroke-miterlimit="10"/>
<path d="M106.456 140.971V149.406" stroke="#263238" stroke-width="2" stroke-miterlimit="10"/>
<path d="M135.975 140.971V149.406" stroke="#263238" stroke-width="2" stroke-miterlimit="10"/>
<path d="M138.785 140.971V149.406" stroke="#263238" stroke-width="2" stroke-miterlimit="10"/>
<path d="M172.75 37.5837V23.2805H193.551" stroke="#4CC1FF" stroke-miterlimit="10"/>
<path d="M195.082 23.2805H203.844V58.7594H172.75V39.7523" stroke="#4CC1FF" stroke-miterlimit="10"/>
<path d="M192.53 53.9758H176.939V28.0642H199.65V53.9758H194.316" stroke="#4CC1FF" stroke-miterlimit="10"/>
<path d="M192.662 36.0369H183.928V46.0028H192.662V36.0369Z" stroke="#4CC1FF" stroke-miterlimit="10"/>
<path d="M206.606 54.1193V45.1978H219.582" stroke="#4CC1FF" stroke-miterlimit="10"/>
<path d="M220.535 45.1978H226V67.3262H206.606V55.4707" stroke="#4CC1FF" stroke-miterlimit="10"/>
<path d="M218.944 64.3443H209.221V48.1794H223.385V64.3443H220.056" stroke="#4CC1FF" stroke-miterlimit="10"/>
<path d="M219.028 53.1545H213.578V59.3693H219.028V53.1545Z" stroke="#4CC1FF" stroke-miterlimit="10"/>
<path d="M1 180.045H225.832" stroke="#263238" stroke-linecap="round" stroke-linejoin="round"/>
<path d="M16.9456 124.236C16.9456 124.236 14.5537 92.3449 15.7497 88.7571C16.9456 85.1694 24.3204 85.3687 25.7156 85.3687C27.1109 85.3687 56.2115 85.3687 60.3972 87.3619C64.5829 89.3551 65.1809 138.388 65.1809 138.388H18.9388L16.9456 124.236Z" fill="#263238" stroke="#263238" stroke-miterlimit="10"/>
<path d="M66.7714 121.645C66.7714 121.645 61.9877 121.645 61.031 126.428C60.0742 131.212 63.8414 150.945 64.1204 156.526C64.3995 162.107 65.3801 169.88 65.3801 169.88H82.3223L86.1093 121.645H66.7714Z" fill="#263238" stroke="#263238" stroke-miterlimit="10"/>
<path d="M86.1096 121.645C86.1096 121.645 81.3259 121.645 80.13 126.428C78.9341 131.212 81.7245 150.945 81.7245 156.526C81.7245 162.107 82.3225 169.88 82.3225 169.88H88.3021C88.3021 169.88 88.9 155.529 88.9 153.536C88.9 151.543 91.2919 130.813 90.096 126.628C88.9 122.442 87.9034 122.043 86.1096 121.645Z" fill="#636363" stroke="#263238" stroke-miterlimit="10"/>
<path d="M35.582 87.4614C35.582 87.4614 19.7361 93.9393 19.7361 94.6369C19.7361 95.3345 25.1177 114.071 27.1109 116.961C29.1041 119.851 30.4993 123.04 31.0973 124.236C31.6953 125.432 34.2864 128.422 36.3793 128.422C38.4721 128.422 40.9636 125.93 47.6408 124.933C54.318 123.937 60.2976 124.037 61.4935 123.14C62.6894 122.243 61.1946 119.851 60.9952 119.353C60.7959 118.854 59.9986 117.06 59.9986 117.06C59.9986 117.06 66.4765 122.442 69.0677 122.641C71.6588 122.841 73.5524 121.545 73.951 119.851C74.3496 118.157 72.8547 114.071 71.8581 111.878C70.8615 109.686 66.1775 106.197 64.0847 103.507C61.9918 100.816 59.301 97.6267 57.4075 95.4342C55.7574 93.5041 53.7202 91.9423 51.4279 90.8499C49.634 90.0526 45.0497 88.0594 42.1595 87.7604C39.2694 87.4614 35.582 87.4614 35.582 87.4614Z" fill="#4CC1FF" stroke="#263238" stroke-miterlimit="10"/>
<path d="M66.6401 110.814C66.6401 110.814 64.3838 117.06 65.1811 118.655C65.9784 120.25 68.1031 120.78 68.1031 120.78" stroke="#263238" stroke-miterlimit="10"/>
<path d="M33.1902 89.5542L46.3453 102.311L48.3385 92.7433" stroke="#263238" stroke-miterlimit="10"/>
<path d="M67.2739 111.579C67.2739 111.579 70.463 113.871 71.5592 113.074C72.6555 112.277 72.3565 110.782 71.6589 109.187C70.9613 107.593 68.6691 106.696 67.7722 107.394C66.8752 108.091 66.5762 110.882 67.2739 111.579Z" fill="white" stroke="#263238" stroke-miterlimit="10"/>
<path d="M34.5857 83.2756L35.084 89.2552L45.6479 99.6198L47.2425 92.245L47.9401 89.1556C47.9401 89.1556 41.0636 87.9596 38.8711 86.4647C36.6785 84.9699 34.5857 83.2756 34.5857 83.2756Z" fill="white" stroke="#263238" stroke-miterlimit="10"/>
<path d="M47.9401 89.1556C47.9401 89.1556 41.0636 87.9596 38.8711 86.4647C36.6785 84.9699 34.5857 83.2756 34.5857 83.2756L35.084 89.2552L37.7549 91.8743C39.8318 92.4603 41.9007 92.7433 43.3079 92.2012C44.8694 91.6334 46.3618 90.8912 47.7567 89.9887L47.9401 89.1556Z" fill="#263238" stroke="#263238" stroke-miterlimit="10"/>
<path d="M31.4283 78.6596C31.4283 78.6596 29.5667 70.1526 29.5667 68.6936C29.5667 67.2346 34.6174 59.788 41.5258 60.9839C48.4342 62.1799 52.2891 66.1662 52.5562 67.3622C52.8233 68.5581 51.7589 70.9499 51.7589 70.9499C51.9692 71.6428 52.1029 72.3566 52.1575 73.0786C52.1575 73.8759 50.9616 77.3281 50.9616 77.3281L50.563 73.7404C50.563 73.7404 47.2423 74.6732 45.3807 74.6732C43.519 74.6732 40.3299 73.4773 40.3299 73.4773C40.3299 73.4773 40.9956 75.602 40.3299 76.6664C39.6642 77.7308 37.675 78.6596 37.675 78.6596C37.675 78.6596 37.4079 80.7843 36.6106 80.7843C35.6271 80.7345 34.6495 80.6011 33.6886 80.3857C33.1544 80.2542 31.4283 78.6596 31.4283 78.6596Z" fill="#263238" stroke="#263238" stroke-miterlimit="10"/>
<path d="M34.4859 79.5883C34.4859 79.5883 34.2188 76.3991 31.5599 77.1964C28.901 77.9937 30.6311 80.9157 32.0941 82.3787C33.5571 83.8417 33.9517 82.7774 33.9517 82.7774C33.9517 82.7774 34.3504 85.8349 36.3436 87.561C38.3368 89.2871 41.3943 92.4763 44.5834 92.0776C47.7726 91.679 50.0328 87.6926 50.4315 84.7706C50.8301 81.8485 51.0932 74.9361 51.0932 74.1389C50.9972 73.2397 50.8197 72.351 50.563 71.4839C50.563 71.4839 47.7726 73.4771 45.2492 72.9429C42.7258 72.4088 40.0669 71.3484 38.8709 71.3484C37.675 71.3484 37.9381 73.0785 38.3368 73.6087C38.7354 74.1389 39.7998 75.2032 38.6039 75.869C37.4079 76.5347 35.8134 77.1964 35.8134 77.1964V79.9869L34.4859 79.5883Z" fill="white" stroke="#263238" stroke-miterlimit="10"/>
<path d="M47.1986 78.1372L46.5448 85.3406L43.272 84.3918" stroke="#263238" stroke-miterlimit="10"/>
<path d="M44.4358 84.9739C44.4358 84.9739 42.8413 84.9739 41.9643 85.0496C41.4375 85.1368 40.9022 85.1608 40.3697 85.1214C40.0069 85.0496 39.5724 84.7586 40.298 85.4841C41.0235 86.2097 43.208 87.0787 44.372 87.2302C45.5361 87.3817 46.3373 87.0109 47.2064 86.4329C48.0754 85.8549 48.8009 85.2689 48.3704 85.1254C47.7705 85.0186 47.1618 84.9692 46.5526 84.9779V85.3446L44.4358 84.9739Z" fill="#263238" stroke="#263238" stroke-miterlimit="10"/>
<path d="M42.1438 80.6088C42.4058 80.6088 42.6182 80.1697 42.6182 79.6281C42.6182 79.0865 42.4058 78.6475 42.1438 78.6475C41.8818 78.6475 41.6694 79.0865 41.6694 79.6281C41.6694 80.1697 41.8818 80.6088 42.1438 80.6088Z" fill="#263238"/>
<path d="M49.2356 79.4846C49.2356 80.0268 49.0243 80.4653 48.7652 80.4653C48.506 80.4653 48.2908 80.0268 48.2908 79.4846C48.2908 78.9425 48.5021 78.5 48.7652 78.5C49.0283 78.5 49.2356 78.9425 49.2356 79.4846Z" fill="#263238"/>
<path d="M40.3616 78.1373C40.3616 78.1373 42.3269 76.754 43.9254 77.34" stroke="#263238" stroke-miterlimit="10"/>
<path d="M47.5652 77.4116C47.5652 77.4116 49.6022 76.4628 50.4753 77.3359" stroke="#263238" stroke-miterlimit="10"/>
<path d="M43.4192 81.4302C43.4192 81.4302 42.9807 81.9404 41.5256 82.3749" stroke="#263238" stroke-miterlimit="10"/>
<path d="M47.4177 81.1191C47.8482 81.4164 48.3126 81.6613 48.801 81.8487" stroke="#263238" stroke-miterlimit="10"/>
<path d="M53.6206 100.019L54.3182 98.2246C54.3182 98.2246 55.2152 99.1216 57.607 99.1216C59.9988 99.1216 63.8856 100.816 63.8856 100.816L64.1845 101.314C64.1845 101.314 64.8822 99.2212 66.1777 98.8226C67.4733 98.424 69.5662 97.0287 69.8651 96.6301L70.1641 96.2314L71.5594 97.4274L65.3805 105.599L53.8199 101.115L53.6206 100.019Z" fill="white" stroke="#263238" stroke-miterlimit="10"/>
<path d="M53.7203 99.321L50.7305 115.167L61.0951 117.559L64.8822 102.211L53.7203 99.321Z" fill="white" stroke="#263238" stroke-miterlimit="10"/>
<path d="M64.882 102.211L71.5592 97.4272L67.5729 112.775L61.095 117.559L64.882 102.211Z" fill="white" stroke="#263238" stroke-miterlimit="10"/>
<path d="M40.864 112.277L45.3806 110.415C45.3806 110.415 49.367 106.166 49.7656 105.767C50.1643 105.368 54.1507 104.97 54.1507 104.97L58.5357 107.892C58.5357 107.892 59.333 108.557 58.5357 108.821C57.7384 109.084 56.0123 108.29 56.0123 108.29L54.2822 107.226L53.2218 107.76L55.4781 109.618C55.4781 109.618 56.1439 111.348 56.1439 112.277C56.1316 112.874 55.9959 113.461 55.7452 114.003L54.4177 115.865L50.4314 113.871C50.4314 113.871 48.0395 115.597 47.5053 115.865C46.9712 116.132 41.9244 115.733 41.9244 115.733L40.864 112.277Z" fill="white" stroke="#263238" stroke-miterlimit="10"/>
<path d="M50.3955 107.621L51.8067 107.354L53.0185 107.688" stroke="#263238" stroke-miterlimit="10"/>
<path d="M49.0522 110.244C49.0522 110.244 52.2095 109.367 52.4128 109.367C52.6161 109.367 54.968 111.786 54.968 111.786L55.2351 114.409" stroke="#263238" stroke-miterlimit="10"/>
<path d="M49.1877 111.922L51.739 111.99L54.091 113.536C54.3296 114.289 54.4401 115.076 54.4179 115.864" stroke="#263238" stroke-miterlimit="10"/>
<path d="M22.5265 92.7434C22.5265 92.7434 19.6005 93.142 19.2019 95.6654C18.8032 98.1888 16.1483 119.452 16.9456 121.844C17.7429 124.236 32.4925 120.118 33.0227 119.851C33.5529 119.584 41.9243 117.06 42.0598 116.53C42.1954 116 42.4585 111.611 41.2626 111.348C40.0666 111.085 28.6377 111.479 28.6377 111.479L27.0431 97.6586" fill="#4CC1FF"/>
<path d="M22.5265 92.7434C22.5265 92.7434 19.6005 93.142 19.2019 95.6654C18.8032 98.1888 16.1483 119.452 16.9456 121.844C17.7429 124.236 32.4925 120.118 33.0227 119.851C33.5529 119.584 41.9243 117.06 42.0598 116.53C42.1954 116 42.4585 111.611 41.2626 111.348C40.0666 111.085 28.6377 111.479 28.6377 111.479L27.0431 97.6586" stroke="#263238" stroke-miterlimit="10"/>
<path d="M28.6377 111.479L21.5938 112.675" stroke="#263238" stroke-miterlimit="10"/>
<path d="M20.2661 111.081L26.3773 111.878" stroke="#263238" stroke-miterlimit="10"/>
<path d="M69.7655 104.005C69.7655 104.005 67.0747 106.795 67.1743 107.493C67.274 108.19 68.6692 107.094 68.9682 106.795C69.2672 106.496 70.6624 105.699 70.6624 104.902C70.6624 104.104 70.3634 103.208 69.7655 104.005Z" fill="white" stroke="#263238" stroke-miterlimit="10"/>
<path d="M70.0642 105.699C70.0642 105.699 70.8615 106.496 70.8615 107.194C70.8615 107.892 69.1673 110.184 68.37 110.184C67.5728 110.184 68.1707 108.589 68.5694 107.892C68.968 107.194 70.0642 105.699 70.0642 105.699Z" fill="white" stroke="#263238" stroke-miterlimit="10"/>
<path d="M70.8618 107.194C70.8618 107.194 71.8584 107.493 71.8584 108.39C71.8584 109.287 69.9648 110.782 69.4665 110.881C68.9682 110.981 69.0679 110.084 69.4665 109.386C69.8652 108.689 70.8618 107.194 70.8618 107.194Z" fill="white" stroke="#263238" stroke-miterlimit="10"/>
<path d="M71.8584 108.39C72.0625 108.895 72.1312 109.445 72.0577 109.984C71.958 110.981 70.4632 111.579 69.9649 111.579C69.4666 111.579 69.4666 110.881 69.4666 110.881C70.31 110.096 71.1085 109.265 71.8584 108.39Z" fill="white" stroke="#263238" stroke-miterlimit="10"/>
<path d="M40.5134 180.045H38.6198L37.675 167.488H41.4621L40.5134 180.045Z" fill="white" stroke="#263238" stroke-miterlimit="10"/>
<path d="M23.1725 180.045H21.279L20.3342 167.488H24.1213L23.1725 180.045Z" fill="white" stroke="#263238" stroke-miterlimit="10"/>
<path d="M85.7587 180.045H83.8652L82.9204 167.488H86.7075L85.7587 180.045Z" fill="white" stroke="#263238" stroke-miterlimit="10"/>
<path d="M68.4179 180.045H66.5244L65.5796 167.488H69.3667L68.4179 180.045Z" fill="white" stroke="#263238" stroke-miterlimit="10"/>
<path d="M83.12 143.462H37.8745V169.772H83.12V143.462Z" fill="#263238" stroke="#263238" stroke-miterlimit="10"/>
<path d="M115.94 139.253C115.94 139.253 120.724 137.259 121.788 136.462C122.852 135.665 124.311 137.391 123.646 139.253C122.98 141.114 121.254 144.435 118.599 146.029C115.944 147.624 113.815 148.951 113.281 149.482C112.747 150.012 112.882 152.009 110.626 152.806C108.37 153.604 105.575 152.009 103.981 149.482C102.386 146.954 101.322 145.232 101.322 145.232C101.322 145.232 101.457 143.37 104.112 142.442C106.767 141.513 111.288 141.11 111.288 141.11L115.94 139.253Z" fill="white" stroke="#263238" stroke-miterlimit="10"/>
<path d="M61.4936 123.14C61.4936 123.14 64.6468 122.374 65.4441 122.773C66.2414 123.172 68.9003 125.699 68.9003 125.699C68.9003 125.699 84.9774 125.962 86.1734 126.496C87.3693 127.03 99.7271 136.462 102.386 137.79C105.045 139.117 107.301 140.313 107.301 140.313L105.308 149.083V149.88L105.444 151.212C105.444 151.212 98.5312 149.083 96.8051 148.684C95.079 148.286 87.9035 144.566 87.2377 144.566C86.572 144.566 81.1266 142.972 81.1266 142.972C81.1266 142.972 80.3293 142.442 71.6908 141.644C63.0523 140.847 53.3534 139.914 49.8972 139.783C46.441 139.651 41.9244 139.384 40.1983 138.718C38.4722 138.053 35.4146 133.405 34.8844 130.614C34.3543 127.824 39.9312 125.432 42.3231 124.367C44.7149 123.303 53.6205 121.976 55.215 121.976C56.8096 121.976 61.4936 123.14 61.4936 123.14Z" fill="white" stroke="#263238" stroke-miterlimit="10"/>
<path d="M64.5151 127.026L61.8562 130.881L65.444 128.489" fill="white"/>
<path d="M64.5151 127.026L61.8562 130.881L65.444 128.489" stroke="#263238" stroke-miterlimit="10"/>
<path d="M105.308 138.587C105.308 138.587 109.163 135.529 109.96 134.601C110.757 133.672 113.416 128.621 113.946 127.026C114.477 125.432 115.808 124.635 116.737 125.83C117.666 127.026 118.332 129.418 118.862 130.483C119.392 131.547 118.599 136.725 117.004 138.455C115.409 140.185 113.205 144.375 112.751 145.232C111.555 147.489 109.693 147.756 108.497 147.887C107.301 148.019 104.379 144.834 104.379 144.834L105.308 138.587Z" fill="white" stroke="#263238" stroke-miterlimit="10"/>
<path d="M46.178 129.685C46.178 129.685 50.1644 128.888 53.7522 129.287C57.3399 129.685 64.647 131.942 67.7045 132.739C70.7621 133.536 76.2075 133.935 78.7349 134.868C81.2623 135.8 87.9036 136.992 92.9504 136.992C97.9971 136.992 105.707 137.658 105.707 137.658C105.707 137.658 104.646 145.364 104.91 146.827C105.172 148.004 105.528 149.158 105.974 150.279C105.974 150.279 95.7408 151.076 92.8188 151.475C89.8968 151.874 78.0692 150.016 76.076 149.482C74.0828 148.948 71.1607 148.154 69.2991 148.154C67.4375 148.154 63.8497 148.952 58.6674 149.482C53.4851 150.012 46.178 147.756 45.2492 147.624C44.3204 147.493 40.9957 146.293 40.1984 145.762C39.4012 145.232 34.749 136.992 36.3436 133.536C37.9382 130.08 39.9314 129.55 39.9314 129.55" fill="white"/>
<path d="M46.178 129.685C46.178 129.685 50.1644 128.888 53.7522 129.287C57.3399 129.685 64.647 131.942 67.7045 132.739C70.7621 133.536 76.2075 133.935 78.7349 134.868C81.2623 135.8 87.9036 136.992 92.9504 136.992C97.9971 136.992 105.707 137.658 105.707 137.658C105.707 137.658 104.646 145.364 104.91 146.827C105.172 148.004 105.528 149.158 105.974 150.279C105.974 150.279 95.7408 151.076 92.8188 151.475C89.8968 151.874 78.0692 150.016 76.076 149.482C74.0828 148.948 71.1607 148.154 69.2991 148.154C67.4375 148.154 63.8497 148.952 58.6674 149.482C53.4851 150.012 46.178 147.756 45.2492 147.624C44.3204 147.493 40.9957 146.293 40.1984 145.762C39.4012 145.232 34.749 136.992 36.3436 133.536C37.9382 130.08 39.9314 129.55 39.9314 129.55" stroke="#263238" stroke-miterlimit="10"/>
<path d="M70.6226 143.092C73.1858 143.602 75.9005 145.157 79.572 146.596C84.4713 148.513 94.2778 148.338 95.5415 148.513C96.8052 148.688 100.014 148.513 100.014 148.513" fill="white"/>
<path d="M70.6226 143.092C73.1858 143.602 75.9005 145.157 79.572 146.596C84.4713 148.513 94.2778 148.338 95.5415 148.513C96.8052 148.688 100.014 148.513 100.014 148.513" stroke="#263238" stroke-miterlimit="10"/>
<path d="M50.8579 144.893L52.3209 145.105C56.5784 145.742 64.6787 143.402 68.0751 142.976" fill="white"/>
<path d="M50.8579 144.893L52.3209 145.105C56.5784 145.742 64.6787 143.402 68.0751 142.976" stroke="#263238" stroke-miterlimit="10"/>
<path d="M46.5725 144.467C46.5725 144.467 47.3379 144.467 49.3351 144.702L46.5725 144.467Z" fill="white"/>
<path d="M46.5725 144.467C46.5725 144.467 47.3379 144.467 49.3351 144.702" stroke="#263238" stroke-miterlimit="10"/>
<path d="M20.7288 121.645C20.7288 121.645 15.9452 121.645 14.9884 126.428C14.0317 131.212 17.7789 150.945 18.0779 156.526C18.3769 162.107 19.3376 169.88 19.3376 169.88H36.2797L40.0668 121.645H20.7288Z" fill="#263238" stroke="#263238" stroke-miterlimit="10"/>
<path d="M40.0666 121.645C40.0666 121.645 35.2829 121.645 34.087 126.428C32.8911 131.212 35.6816 150.945 35.6816 156.526C35.6816 162.107 36.2795 169.88 36.2795 169.88H42.2591C42.2591 169.88 42.8571 155.529 42.8571 153.536C42.8571 151.543 45.2489 130.813 44.053 126.628C42.8571 122.442 41.8605 122.043 40.0666 121.645Z" fill="#636363" stroke="#263238" stroke-miterlimit="10"/>
<path d="M78.9819 180.045H77.0883L76.1436 167.488H79.9306L78.9819 180.045Z" fill="white" stroke="#263238" stroke-miterlimit="10"/>
<path d="M95.1267 180.045H93.2331L92.2883 167.488H96.0754L95.1267 180.045Z" fill="white" stroke="#263238" stroke-miterlimit="10"/>
<path d="M102.701 180.045H100.807L99.8625 167.488H103.65L102.701 180.045Z" fill="white" stroke="#263238" stroke-miterlimit="10"/>
<path d="M118.646 180.045H116.753L115.808 167.488H119.595L118.646 180.045Z" fill="white" stroke="#263238" stroke-miterlimit="10"/>
<path d="M76.642 151.144H118.28C119.046 151.144 119.781 151.449 120.323 151.991C120.865 152.533 121.17 153.268 121.17 154.034V174.464H73.7319V154.034C73.7319 153.653 73.8073 153.276 73.9538 152.924C74.1003 152.572 74.315 152.252 74.5855 151.984C74.856 151.715 75.1769 151.502 75.5299 151.358C75.8828 151.214 76.2608 151.141 76.642 151.144Z" fill="#263238" stroke="#263238" stroke-miterlimit="10"/>
<path d="M118.3 151.144H103.151C102.385 151.144 101.65 151.449 101.108 151.991C100.566 152.533 100.261 153.268 100.261 154.034V174.464H121.19V154.034C121.189 153.268 120.884 152.533 120.342 151.992C119.8 151.45 119.066 151.145 118.3 151.144Z" fill="#636363" stroke="#263238" stroke-miterlimit="10"/>
</svg>
